<?xml version="1.0" encoding="utf-8"?>
<!-- Generator: Adobe Illustrator 21.0.0, SVG Export Plug-In . SVG Version: 6.00 Build 0)  -->
<svg version="1.1" id="Layer_1" xmlns="http://www.w3.org/2000/svg" xmlns:xlink="http://www.w3.org/1999/xlink" x="0px" y="0px"
	 width="1400px" height="980px" viewBox="0 0 1400 980" enable-background="new 0 0 1400 980" xml:space="preserve">
<g>
	<rect fill="#FFFEF2" width="1400" height="980"/>
	<g>
		<path fill="#E8E6D2" d="M766.4,328.8c9.5,15,27.4,18.8,34.4,19.7c-0.3,0.9-0.5,1.8-0.7,2.7c-37.2,21.4-35,27.3-34.1,29.6
			c0.8,2,2.7,3.7,9.2,3.7c4.3,0,10.5-0.7,19.8-2.6c-1,13.5-0.1,22.4,0,23c1.2,14.9,5.9,27.3,13.9,36.9c1.2,1.5,2.5,2.8,3.8,4.1
			c-20.9,14.8-18.9,18.9-18,20.7c0.7,1.5,2.1,2.8,6.4,2.8c5.5,0,16-2.1,36.2-8.8c18.1,6.2,35.6,4.9,38,4.7c0.2,0,0.5,0,0.9,0.1
			c1.2,0.1,3.2,0.2,5.9,0.2c0,0,0,0,0,0s0,0,0,0c7.2,0,19.1-0.8,31.2-4.9c20.3,6.6,30.7,8.8,36.2,8.8c4.3,0,5.7-1.3,6.4-2.8
			c0.9-1.8,2.9-5.8-18-20.7c1.3-1.3,2.6-2.7,3.8-4.1c3.6-4.3,6.5-9.1,8.7-14.4c36.2-15.9,50.5-54.1,52.5-59.8
			c19.2-15.3,8.1-31.2,8-31.2c-5.4-8.6-4.1-20.1-4.1-20.2c0.1-0.9-0.3-1.7-1-2.2c-0.7-0.5-1.7-0.5-2.4,0
			c-13.4,8.1-21.1,17.5-23,27.9c-1.8,10.3,2.6,18.4,4.7,21.4c-1.6,2.9-3.4,5.5-5.4,7.8c-4.7-4.4-13.4-10.7-29.3-19.8
			c-0.2-0.9-0.5-1.8-0.7-2.7c7-0.9,25-4.7,34.4-19.7c8.4-13.3,7.8-31.9-1.7-55.1c4-7.5,25.3-52.7-20.2-91
			c-1.6-1.4-30.4-26.3-86.9-26.3c-0.1,0-0.1,0-0.2,0c-56.9,0-85.7,25.3-86.8,26.3c-45.6,38.3-24.2,83.6-20.2,91
			C758.6,296.9,758,315.4,766.4,328.8z M956,387.6c-0.1-1.8-0.2-3.7-0.3-5.7c3.3,0.7,6.2,1.2,8.8,1.6
			C961.4,385.1,958.6,386.5,956,387.6z"/>
		<path fill="#E8E6D2" d="M382.9,249.8c-0.7-0.5-1.6-0.5-2.4-0.1l-82.4,45.2c-0.3-0.8-0.5-1.6-0.8-2.4c1.2-5.5,7.5-40-13.8-67.6
			c-0.5-0.6-1-1.3-1.5-1.9c5.8-4.1,20.5-16.5,28.4-42.5c5-16.3,6.3-35.2,3.8-56.1c-0.1-0.7-0.4-1.2-1-1.6c-0.5-0.4-1.2-0.5-1.8-0.4
			c-0.1,0-0.3,0.1-0.6,0.1c-0.6,0.2-1.7,0.5-3.1,0.9c-0.1,0-0.3,0.1-0.4,0.1c-6,2-17.9,6.9-30.6,17.2c-17.2,14-29.7,32.8-37.4,56
			c-12.2-3.5-26.3-5.4-42-5.7c-15.7,0.3-29.7,2.2-41.9,5.7c-7.6-23.2-20.2-42-37.4-56c-17.8-14.6-34-18.3-34.7-18.4
			c-0.6-0.1-1.3,0-1.8,0.4c-0.5,0.4-0.9,1-1,1.6c-0.2,1.3-0.3,2.6-0.4,3.9c-1.6,16.8-0.8,32.2,2.5,45.9c0.1,0.6,0.3,1.2,0.5,1.8
			c0.1,0.4,0.2,0.9,0.3,1.3c0.3,1,0.6,2.1,0.9,3.1c0,0,0,0,0,0c7.8,26,22.6,38.4,28.4,42.5c-0.5,0.6-1,1.2-1.5,1.9
			c-21.3,27.6-15,62.1-13.8,67.6c-6.8,18.9-6.3,34.6,1.5,46.7c11.1,17.2,33.4,21.9,41.6,23.1c-20.2,54.2-9.8,79-2.8,88.3l-13.8,11.5
			c-0.1,0.1-0.2,0.1-0.2,0.2c-1.4,1.5-2.4,3.7-1.1,5.5c0.6,0.8,1.4,1.5,3.5,1.5c3.5,0,10.5-2,25.6-8.7c8.5,3.2,16.6,2.5,21.3,1.5
			c3-0.6,5.7-1.9,8.1-3c5.3-2.6,16.5-3.2,16.3-3.2c0.1,0,11.2,0.6,16.6,3.2c2.3,1.1,5.1,2.4,8.1,3c2.2,0.4,5,0.8,8.3,0.8
			c3.9,0,8.4-0.6,13.1-2.3c15.1,6.7,22.1,8.7,25.6,8.7c2,0,2.9-0.7,3.5-1.5c1.3-1.8,0.3-4-1.1-5.5c-0.1-0.1-0.1-0.1-0.2-0.2
			l-13.8-11.5c2.4-3.2,5.1-8,6.9-15.1l23.3-12.9c0.7-0.4,1.1-1.1,1.2-1.8l1.4-16.3l13.3-7.6c0.3-0.2,0.6-0.4,0.8-0.8l24.7-38.6
			l41.8-2.3c1.1-0.1,2-0.9,2.2-2.1L383.9,252C384,251.1,383.6,250.3,382.9,249.8z M254.3,362.3c6.3-0.9,21.2-3.9,32.7-13.3
			l-0.5,25.7l-15.2,12.1c-0.5,0.4-0.9,1.1-0.9,1.8v8.6v8.6l-4.8,2.8C264.6,396.3,261.3,381.1,254.3,362.3z"/>
		<path fill="#E8E6D2" d="M678.5,303.3c-0.6-0.4-14.6-8.4-34.7,0.3c-0.5-2.1-1.1-4.3-1.7-6.6c0.5-3.1,2.6-17.6,0.2-35
			c15.9-10.7,49.2-42.3,46.2-117.5c0-1.2-1-2.2-2.2-2.2c-0.5,0-58.3-1.1-98.2,52.4c-12.5-4-27.1-5.8-43.5-5.4
			c-16.5-0.4-31.1,1.4-43.7,5.4c-39.9-53.5-97.7-52.4-98.2-52.4c-1.2,0-2.2,1-2.2,2.2c-3,75.2,30.3,106.8,46.2,117.5
			c-2.4,17.4-0.3,31.9,0.2,35c-5.5,18.2-4.3,33.2,3.5,44.8c9.8,14.4,27.3,19.3,36.2,20.9c-4.8,4.3-6.8,8.2-6.2,11.8
			c0.4,2.3,1.8,3.9,3.3,5c-3.9,5.9-4.8,10.3-2.9,13.4c1.4,2.3,4.1,3.2,6.4,3.4c-19,36-10.1,53.6-8.9,55.7c10,23.5,30.8,16.2,31.2,16
			c17.3-8.4,25.7-8.4,34.7-8.4h1.1c9,0,17.4,0,34.9,8.5c0.1,0,3.2,1.1,7.6,1.1c7,0,17.2-2.8,23.4-17.3c0.3-0.6,1.3-2.4,2.1-5.6
			c7.5-0.4,35.4-3.2,51.7-22.3c10-11.7,13.6-27.2,10.8-46.1c-0.5-3.3-1.2-6.6-2-9.9c7.1-0.6,24-4.5,25.9-27.8
			C699.3,339.4,701.2,313.1,678.5,303.3z"/>
		<path fill="#E8E6D2" d="M1340.9,746.9c-1.6-17.2-6.2-32.8-13.6-46.8l0.5-1.8c3.7-15.1,12.5-50.4-7.4-92.4c-0.4-0.8-1.1-1.3-2-1.3
			c-1.8-0.1-44.1-2.1-77.2,31.6c-8.7-1.7-18.2-2.6-28.4-2.2c-1,0-2.1,0-2.8,0.1c-5.8-0.3-11.5-0.3-17,0.2c-1.4,0.1-2.7,0.2-4.1,0.4
			c0,0,0,0,0,0c-3.6,0.4-7.1,0.9-10.4,1.6c-33-33.6-75.3-31.7-77.1-31.6c-0.8,0-1.5,0.5-1.9,1.2c-20.5,38.5-10.8,78.6-7.2,93.6
			l0.2,0.7c-7.4,14-12,29.6-13.6,46.8c-3.1,32.7,8.9,64.5,31.1,86c-12.9,15.4-17.5,25.8-13.6,30.9c1.2,1.6,3.2,3,7.4,3
			c6.3,0,17.5-3,38.3-12.8c32.6,15.1,49.3,15.1,66.9,15.1h1.7c0.3,0,0.6,0,0.9,0c17.3,0,34-0.3,66.1-15.1
			c20.8,9.8,32,12.8,38.3,12.8c4.2,0,6.2-1.4,7.4-3c3.9-5.1-0.7-15.5-13.6-30.9C1332,811.4,1344,779.7,1340.9,746.9z"/>
		<path fill="#E8E6D2" d="M321.8,663.2c1.4-12.7,1.9-26.5,0.3-38c-1.1-7.8-7.7-13.5-15.6-13.8c-6.7-0.2-16.7,0-27.8,1.6
			c-18.5-17.9-40.9-36.5-67-55.7c0,0,0,0,0,0l-7.9-5.7c0,0-0.1-0.1-0.1-0.1c-0.1,0-0.1-0.1-0.2-0.1c-0.1,0-0.1-0.1-0.2-0.1
			c0,0-0.1,0-0.1,0c0,0,0,0,0,0c0,0,0,0-0.1,0c-0.1,0-0.1,0-0.2,0c-0.1,0-0.1,0-0.2,0c-0.1,0-0.1,0-0.2,0c0,0-0.1,0-0.1,0
			c-0.1,0-0.1,0-0.2,0c-0.1,0-0.1,0-0.2,0c-0.1,0-0.1,0-0.2,0c0,0,0,0-0.1,0c0,0,0,0,0,0c0,0-0.1,0-0.1,0c-0.1,0-0.1,0-0.2,0.1
			c-0.1,0-0.1,0.1-0.2,0.1c0,0-0.1,0-0.1,0.1l-8,5.7c-26.1,19.2-48.5,37.8-67,55.7c-11.2-1.6-21.1-1.8-27.8-1.6
			c-7.9,0.2-14.4,6-15.6,13.8c-1.7,11.5-1.1,25.3,0.3,38c-18.2,27.1-26.2,52.4-23.9,75.7c0.1,1.4,0.3,2.8,0.5,4.1
			c0.1,0.5,0.2,0.9,0.2,1.4c0.2,0.9,0.3,1.8,0.5,2.7c0.1,0.5,0.2,1,0.4,1.5c0.2,0.8,0.4,1.6,0.6,2.3c0.1,0.5,0.3,1.1,0.5,1.6
			c0.2,0.7,0.4,1.5,0.6,2.2c0.2,0.5,0.4,1,0.5,1.6c0.2,0.7,0.5,1.4,0.7,2.1c0.2,0.5,0.4,1,0.6,1.5c0.3,0.7,0.5,1.4,0.8,2
			c0.2,0.5,0.5,1,0.7,1.5c0.3,0.6,0.6,1.3,0.9,1.9c0.2,0.5,0.5,1,0.7,1.4c0.3,0.6,0.7,1.3,1,1.9c0.3,0.5,0.5,0.9,0.8,1.4
			c0.4,0.6,0.7,1.2,1.1,1.8c0.3,0.4,0.6,0.9,0.8,1.3c0.4,0.6,0.8,1.2,1.1,1.8c0.3,0.4,0.6,0.8,0.9,1.3c0.4,0.6,0.8,1.2,1.2,1.7
			c0.3,0.4,0.6,0.8,0.9,1.2c0.4,0.6,0.8,1.1,1.3,1.7c0.3,0.4,0.6,0.8,0.9,1.1c0.4,0.5,0.9,1.1,1.3,1.6c0.3,0.4,0.6,0.7,1,1.1
			c0.5,0.5,0.9,1.1,1.4,1.6c0.3,0.3,0.6,0.7,1,1c0.5,0.5,1,1,1.4,1.5c0.3,0.3,0.7,0.6,1,1c0.5,0.5,1,1,1.5,1.5
			c0.3,0.3,0.7,0.6,1,0.9c0.5,0.5,1,0.9,1.5,1.4c0.3,0.3,0.7,0.6,1,0.9c0.5,0.5,1,0.9,1.5,1.4c0.3,0.3,0.6,0.5,1,0.8
			c0.5,0.4,1.1,0.9,1.6,1.3c0.3,0.3,0.6,0.5,1,0.8c0.5,0.4,1.1,0.8,1.6,1.3c0.3,0.2,0.6,0.5,0.9,0.7c0.5,0.4,1.1,0.8,1.6,1.2
			c0.3,0.2,0.6,0.4,0.9,0.7c0.5,0.4,1.1,0.8,1.6,1.2c0.3,0.2,0.6,0.4,0.9,0.6c0.5,0.4,1.1,0.7,1.6,1.1c0.3,0.2,0.6,0.4,0.9,0.6
			c0.5,0.4,1.1,0.7,1.6,1c0.3,0.2,0.6,0.3,0.8,0.5c0.5,0.3,1.1,0.7,1.6,1c0.3,0.2,0.5,0.3,0.8,0.5c0.5,0.3,1,0.6,1.6,0.9
			c0.3,0.1,0.5,0.3,0.8,0.4c0.5,0.3,1,0.6,1.5,0.9c0.2,0.1,0.5,0.3,0.7,0.4c0.5,0.3,1,0.6,1.5,0.8c0.2,0.1,0.4,0.2,0.6,0.3
			c0.5,0.3,1,0.5,1.5,0.8c0.2,0.1,0.4,0.2,0.6,0.3c0.5,0.2,1,0.5,1.4,0.7c0.2,0.1,0.4,0.2,0.5,0.3c0.5,0.2,0.9,0.5,1.4,0.7
			c0.1,0,0.1,0.1,0.2,0.1c0.1,3.4,0.2,7.2,0.6,11.2c0.3,3.6,0.8,7.1,1.4,10.2c3.7,20.2,12.6,31.2,25.5,32.1
			c0.5,0.1,11.4,1.3,17.6-15.5c4.8,0.8,17.7,2.7,35.4,2.4c17.8,0.3,30.7-1.5,35.5-2.4c5.4,14.4,14.2,15.5,16.8,15.5
			c0.4,0,0.7,0,0.7,0c13.1-0.8,21.9-11.9,25.6-32.1c0.6-3.1,1-6.5,1.4-10.2c0.4-4,0.5-7.8,0.6-11.2c0.1,0,0.2-0.1,0.2-0.1
			c0.4-0.2,0.8-0.4,1.1-0.6c0.2-0.1,0.5-0.2,0.7-0.4c0.4-0.2,0.8-0.4,1.2-0.6c0.3-0.1,0.5-0.3,0.8-0.4c0.4-0.2,0.9-0.5,1.3-0.7
			c0.3-0.1,0.5-0.3,0.8-0.4c0.4-0.2,0.9-0.5,1.3-0.7c0.3-0.2,0.6-0.3,0.9-0.5c0.5-0.3,0.9-0.5,1.4-0.8c0.3-0.2,0.6-0.3,0.9-0.5
			c0.5-0.3,0.9-0.6,1.4-0.8c0.3-0.2,0.6-0.4,0.9-0.6c0.5-0.3,1-0.6,1.5-0.9c0.3-0.2,0.6-0.4,1-0.6c0.5-0.3,1-0.6,1.5-1
			c0.3-0.2,0.7-0.4,1-0.6c0.5-0.3,1-0.7,1.5-1c0.3-0.2,0.7-0.5,1-0.7c0.5-0.3,1-0.7,1.5-1.1c0.3-0.2,0.7-0.5,1-0.7
			c0.5-0.4,1-0.7,1.5-1.1c0.3-0.3,0.7-0.5,1-0.8c0.5-0.4,1-0.8,1.5-1.2c0.4-0.3,0.7-0.5,1.1-0.8c0.5-0.4,1-0.8,1.5-1.2
			c0.4-0.3,0.7-0.6,1.1-0.9c0.5-0.4,1-0.9,1.5-1.3c0.4-0.3,0.7-0.6,1.1-0.9c0.5-0.4,1-0.9,1.4-1.3c0.4-0.3,0.7-0.7,1.1-1
			c0.5-0.5,1-0.9,1.4-1.4c0.3-0.3,0.7-0.7,1-1c0.5-0.5,0.9-1,1.4-1.5c0.3-0.4,0.7-0.7,1-1.1c0.5-0.5,0.9-1,1.3-1.5
			c0.3-0.4,0.7-0.8,1-1.1c0.4-0.5,0.9-1,1.3-1.6c0.3-0.4,0.7-0.8,1-1.2c0.4-0.5,0.8-1.1,1.3-1.6c0.3-0.4,0.6-0.8,0.9-1.2
			c0.4-0.6,0.8-1.1,1.2-1.7c0.3-0.4,0.6-0.9,0.9-1.3c0.4-0.6,0.8-1.2,1.1-1.7c0.3-0.4,0.6-0.9,0.9-1.3c0.4-0.6,0.7-1.2,1.1-1.8
			c0.3-0.5,0.5-0.9,0.8-1.4c0.3-0.6,0.7-1.2,1-1.9c0.3-0.5,0.5-1,0.8-1.4c0.3-0.6,0.6-1.3,0.9-1.9c0.2-0.5,0.5-1,0.7-1.5
			c0.3-0.7,0.6-1.4,0.8-2c0.2-0.5,0.4-1,0.6-1.5c0.3-0.7,0.5-1.4,0.8-2.1c0.2-0.5,0.4-1,0.5-1.5c0.2-0.7,0.4-1.5,0.7-2.2
			c0.2-0.5,0.3-1,0.5-1.6c0.2-0.8,0.4-1.6,0.6-2.4c0.1-0.5,0.2-1,0.4-1.5c0.2-0.9,0.3-1.8,0.5-2.7c0.1-0.4,0.2-0.9,0.2-1.3
			c0.2-1.4,0.4-2.7,0.5-4.1c0.2-2.4,0.4-4.8,0.4-7.3c0-1.6,0-3.3-0.1-4.9C345,706.8,336.9,685.6,321.8,663.2z"/>
		<path fill="#E8E6D2" d="M682.9,735.6c-0.9-11.4-2.7-18.7-2.8-19c-0.2-0.8-0.8-1.4-1.5-1.6c-0.7-0.3-1.6-0.1-2.2,0.4l-3.7,3
			c-2.5-15.3-7.7-32.4-18.4-44.7c4.2-7.3,20.8-38.8,8.4-54.5c-8.5-10.7-28.3-11.3-58.9-1.8c-4.9-8-27.4-42.1-54.1-42.1
			c-26.7,0-49.2,34.2-54.1,42.1c-30.6-9.5-50.4-8.9-58.9,1.8c-12.4,15.7,4.3,47.2,8.4,54.5c-10.7,12.2-15.9,29.4-18.4,44.7l-3.7-3
			c-0.6-0.5-1.4-0.6-2.2-0.4c-0.7,0.3-1.3,0.9-1.5,1.6c-0.1,0.3-1.9,7.6-2.8,19c0,0.4-0.1,0.8-0.1,1.3c0,0.2,0,0.3,0,0.5
			c0,0.3,0,0.5-0.1,0.8c0,0.2,0,0.4,0,0.6c0,0.2,0,0.4,0,0.6c0,0.3,0,0.6,0,0.8c0,0.1,0,0.2,0,0.4c0,0.4,0,0.7-0.1,1.1
			c0,0.1,0,0.2,0,0.3c0,0.4,0,0.8,0,1.2c0,0.1,0,0.2,0,0.3c0,0.4,0,0.8,0,1.2c0,0.1,0,0.2,0,0.3c0,0.5,0,1,0,1.5c0,0,0,0,0,0
			c0,0,0,0,0,0c-0.1,9.8,0.7,19.1,2.4,27.9c0,0,0,0,0,0c0.7,3.5,1.5,7.2,2.6,11c5.1,17.7,14.1,32.7,26.6,44.6c0,0,0,0,0,0
			c2.2,2,4.5,4,6.9,5.9c2.1,1.7,4.3,3.2,6.6,4.8c2.5,1.7,5.1,3.2,7.8,4.6c-13.6,13.7-13.1,18.7-11.4,21.2c1,1.5,2.8,2.8,6.8,2.8
			c6.1,0,17.2-2.8,38.4-11.3c14.1,3.3,29.8,5.1,47,5.4c17.2-0.3,32.9-2.1,47-5.4c21.2,8.6,32.3,11.3,38.4,11.3
			c4.1,0,5.8-1.2,6.8-2.8c1.7-2.6,2.2-7.5-11.4-21.2c2.6-1.4,5.2-3,7.8-4.6c4.8-3.2,9.3-6.8,13.4-10.6c0,0,0,0,0,0
			c12.6-11.9,21.5-26.9,26.6-44.6c1.1-3.8,2-7.5,2.6-10.9c1.7-8.8,2.5-18.2,2.4-27.9C683.3,742.1,683.1,738.2,682.9,735.6
			C682.9,735.6,682.9,735.6,682.9,735.6z"/>
		<path fill="#E8E6D2" d="M1008.4,727.9c-9.4-5.9-20.5-2.1-20.8-2c-14.2,3.8-15.9,20.3-14.8,28.3c0.4,13.1-2.3,22.6-8.2,28
			c-4.2,3.8-9,4.7-11.8,4.9c-0.1-1.1-0.2-2.2-0.3-3.3c0.7,0.2,1.4,0.3,2.1,0.3c0.4,0,0.7,0,1.1-0.1c3.1-0.4,4.8-2.7,5-3l5.2-7.8
			c2.1-3.5,2.7-6.8,1.8-9.8c-0.8-2.4-2.4-4-3.6-5c0.5-2.2,0.8-5.4-1.4-7.1c-2.6-2-6.8-0.2-9.3,1.2l-11.6-9.6
			c-1.4-3.6-3-7.3-4.8-11.1c15.3-4.4,30.3-11.6,41-23.5c13.8-15.3,18.2-36.1,13.3-61.7c0.7-4.4,5-37.5-17.8-64.8
			c-19.6-23.5-53.2-35.4-99.9-35.4c-0.1,0-0.3,0-0.4,0c-46.7,0-80.3,11.9-99.9,35.4c-22.8,27.3-18.5,60.4-17.8,64.8
			c-5,25.6-0.5,46.3,13.3,61.7c10.7,11.9,25.7,19.1,41,23.5c-1.7,3.8-3.3,7.5-4.8,11.1l-11.6,9.6c-2.4-1.4-6.6-3.1-9.3-1.2
			c-2.3,1.7-1.9,4.9-1.4,7.1c-1.3,1-2.9,2.6-3.6,5c-0.9,3-0.3,6.3,1.8,9.9l5.2,7.8c0.2,0.3,1.9,2.5,5,3c0.4,0,0.7,0.1,1.1,0.1
			c0.7,0,1.4-0.1,2.1-0.3c-1.6,16.6,1.4,30.3,9,41c3.4,4.9,7.6,8.8,12.2,12c-0.9,3.3-2.1,10.6,2.4,17.6c-2.1,2.2-3.8,5.7-1.8,9.1
			c0.8,1.8,4.1,5.7,17.7,5.7c2.5,0,5.4-0.1,8.6-0.4c2.6-0.2,4.8-1.8,6-4c1-1.9,1.1-4.1,0.3-6c0.6-1.6,1.7-5.1,2.3-9.4
			c11.6,1.4,20.8,0.7,22.5,0.6c0.9,0.1,3.8,0.3,8,0.3c3.9,0,8.9-0.2,14.5-0.9c0.7,4.3,1.8,7.8,2.3,9.4c-0.8,1.9-0.7,4.1,0.3,6
			c1.2,2.3,3.4,3.8,6,4c3.3,0.3,6.1,0.4,8.6,0.4c13.6,0,16.9-4,17.7-5.7c2-3.4,0.2-6.8-1.8-9.1c4.6-7,3.4-14.3,2.4-17.6
			c2.3-1.6,4.6-3.5,6.7-5.6c32.9-4.2,44.7-41.6,47.7-54.2c8.2,5.8,19.4,2.7,19.9,2.5c14.9-4.7,16-21.3,14.4-29.3
			C1018.9,739.5,1014.9,731.9,1008.4,727.9z"/>
		<path fill="#E8E6D2" d="M1352.1,234.1c-0.8-2.7-2.4-4.7-4.8-5.9c-5.2-2.6-12.5-0.6-14.8,0.2l-8-1.8c-3.6-12.7-10.9-28.2-25.5-41.7
			c-20.6-19-50.5-29.1-89.1-30.2c-38.5,1-68.4,11.2-89,30.2c-14.6,13.4-21.9,29-25.5,41.7l-8,1.8c-2.3-0.8-9.6-2.9-14.8-0.2
			c-2.4,1.2-4,3.2-4.8,5.8c-1.2,3.8-1.3,11.8,7.3,15.1c0.1,0,1.2,0.4,2.8,0.4c2.7,0,6.9-0.9,10.6-5.6l3.8-1.4
			c-1.1,10.1-0.2,19.3,2.7,27.6c0.4,1,0.7,2,1.1,3c-2.2,6.5-14.2,46.7,15.9,66.7c-9.7,27.1-9.2,50.8,1.6,68.5
			c4,6.6,9.9,12.5,17.1,17.1l-10,13.5c-1.6,2.1-2.7,4.2-3.5,6.3c-2,5.5-0.6,8.4,0.9,9.9c2.7,2.7,7.6,2.9,15.4,0.4
			c1.1,3.7,3.7,10,9.1,11.4c3.9,1,8.2-0.8,12.8-5.5c2.3,3.2,6.4,7.9,10.8,7.9c0.5,0,1-0.1,1.6-0.2c5.5-1.4,8.3-10.2,8.8-27.3
			c9.7,1.7,20.8,2.9,33.3,2.9c12.5,0,23.6-1.1,33.3-2.9c0.5,17.2,3.4,25.9,8.8,27.3c0.5,0.1,1,0.2,1.6,0.2c4.4,0,8.5-4.7,10.8-7.9
			c4.6,4.7,8.9,6.5,12.8,5.5c5.4-1.4,8-7.8,9.1-11.4c7.8,2.4,12.7,2.3,15.4-0.4c1.5-1.5,2.8-4.4,0.8-9.9c-0.8-2.1-1.9-4.2-3.5-6.3
			l-10-13.5c7.2-4.6,13.1-10.5,17.1-17.1c10.8-17.7,11.4-41.4,1.6-68.5c30.1-20,18.1-60.2,15.9-66.7c0.4-1,0.8-2,1.1-3
			c2.8-8.2,3.7-17.5,2.7-27.6l3.8,1.4c3.7,4.7,7.9,5.6,10.6,5.6c1.7,0,2.8-0.3,2.9-0.4C1353.5,245.8,1353.4,237.8,1352.1,234.1z"/>
	</g>
	<g>
		<g>
			<g>
				<path fill="#F9A86D" d="M955,178.7c0,0-28.7-25.8-85.4-25.8c-56.7,0-85.4,25.8-85.4,25.8c-48.6,40.9-19.2,89.1-19.2,89.1
					c-29.5,70,33.1,72.9,33.1,72.9c-9.6,31.7-6.6,58.2-6.6,58.2c1.2,15.6,6.3,27.1,13.4,35.6c22.4,26.9,64.7,22.6,64.7,22.6
					s42.3,4.3,64.7-22.6c7.1-8.4,12.1-19.9,13.4-35.6c0,0,2.9-26.5-6.6-58.2c0,0,62.6-2.9,33.1-72.9
					C974.2,267.8,1003.6,219.6,955,178.7z"/>
				<path fill="#3C2415" d="M876.4,459.7c-3.6,0-6-0.2-6.8-0.3c-3.8,0.4-44.2,3.3-66.5-23.5c-8-9.6-12.7-22-13.9-36.9
					c-0.1-1-2.7-25.8,5.9-56.3c-7-0.9-25-4.7-34.4-19.7c-8.4-13.3-7.8-31.9,1.7-55.1c-4-7.5-25.3-52.7,20.2-91
					c1.1-1,30-26.3,86.8-26.3c0.1,0,0.1,0,0.2,0c56.5,0,85.3,24.9,86.9,26.3c45.5,38.3,24.2,83.6,20.2,91
					c9.6,23.2,10.1,41.8,1.7,55.1c-9.5,15-27.4,18.8-34.4,19.7c8.7,30.5,6,55.3,5.9,56.4c-1.2,14.8-5.9,27.2-13.9,36.8
					C918.5,457,889.7,459.7,876.4,459.7z M869.6,454.8c0.1,0,0.2,0,0.2,0c0.4,0,41.3,3.8,62.7-21.8c7.4-8.9,11.7-20.4,12.8-34.3
					c0-0.3,2.8-26.5-6.5-57.3c-0.2-0.7-0.1-1.4,0.3-2c0.4-0.6,1.1-0.9,1.8-1c0.2,0,23.3-1.3,33.7-17.9c7.7-12.2,6.8-29.6-2.5-51.9
					c-0.3-0.7-0.2-1.5,0.2-2.1c1.2-1.9,27.8-47.1-18.7-86.2c0,0,0,0-0.1,0c-0.3-0.3-28.8-25.2-83.8-25.2c-0.1,0-0.1,0-0.2,0
					c-55.1,0-83.5,24.9-83.8,25.2c-46.5,39.1-19.9,84.3-18.7,86.2c0.4,0.6,0.4,1.4,0.2,2.1c-9.4,22.2-10.2,39.7-2.5,51.9
					c10.4,16.6,33.4,17.8,33.6,17.8c0.7,0,1.4,0.4,1.8,1c0.4,0.6,0.5,1.3,0.3,2c-9.3,30.9-6.6,57-6.5,57.3
					c1.1,14,5.4,25.5,12.8,34.3c21.4,25.6,62.3,21.9,62.7,21.8C869.4,454.8,869.5,454.8,869.6,454.8z"/>
			</g>
			<g>
				<path fill="#F9A86D" d="M810.6,440.3c-12.7,8.8-46.6,34.2,21.1,12C824.4,449.7,817,445.9,810.6,440.3z"/>
				<path fill="#3C2415" d="M795.4,463.5c-4.3,0-5.7-1.3-6.4-2.8c-0.9-1.8-3.1-6.1,20.4-22.3c0.9-0.6,2-0.5,2.8,0.2
					c5.6,4.9,12.4,8.8,20.3,11.5c0.9,0.3,1.6,1.2,1.5,2.2c0,1-0.6,1.9-1.6,2.2C811.6,461.3,801,463.5,795.4,463.5z M793.2,458.6
					c1.3,0.5,7,1.2,31.6-6.6c-5.3-2.4-10.1-5.4-14.4-8.8C797.8,452.2,793.7,457,793.2,458.6z"/>
			</g>
			<g>
				<path fill="#F9A86D" d="M796.4,346.9c-14,8-66.5,39.4-4.6,26.3C792.5,365.5,793.9,356.6,796.4,346.9z"/>
				<path fill="#3C2415" d="M769.5,378.7c-6.5,0-8.4-1.7-9.2-3.7c-0.9-2.3-3.1-8.3,35-30c0.8-0.5,1.8-0.4,2.5,0.2
					c0.7,0.6,1.1,1.5,0.8,2.4c-2.2,8.4-3.7,17.1-4.5,25.9c-0.1,1-0.8,1.8-1.8,2C781.4,377.8,774.2,378.7,769.5,378.7z M792.9,351.7
					c-20.8,12.3-28.4,19.7-28.3,21.7c0.2,0.1,3,2.4,25.1-2.1C790.4,364.7,791.5,358.1,792.9,351.7z"/>
			</g>
			<path fill="#3C2415" d="M849.9,280.4c-0.5,0-0.9,0-1.4,0c-11.7-0.6-19.4-9.2-19.7-9.6c-0.8-1-0.7-2.4,0.2-3.3
				c1-0.8,2.4-0.8,3.3,0.2c0.1,0.1,6.8,7.5,16.5,8c6.5,0.4,12.9-2.4,19.2-8.2c0.9-0.9,2.4-0.8,3.3,0.1s0.8,2.4-0.1,3.3
				C864.3,277.2,857.2,280.4,849.9,280.4z"/>
			<circle fill="#3C2415" cx="797.7" cy="257.5" r="10.1"/>
			<ellipse fill="#EF4136" cx="783.9" cy="279" rx="13.7" ry="5.3"/>
			<g>
				<path fill="#F9A86D" d="M928.5,440.3c12.7,8.8,46.6,34.2-21.1,12C914.8,449.7,922.1,445.9,928.5,440.3z"/>
				<path fill="#3C2415" d="M943.8,463.5c-5.6,0-16.2-2.2-37.1-9c-0.9-0.3-1.6-1.2-1.6-2.2c0-1,0.6-1.9,1.5-2.2
					c7.9-2.7,14.7-6.6,20.3-11.5c0.8-0.7,2-0.8,2.8-0.2c23.4,16.2,21.3,20.5,20.4,22.3C949.5,462.2,948.2,463.5,943.8,463.5z
					 M914.3,452.1c24.6,7.7,30.4,7.1,31.6,6.6c-0.5-1.6-4.6-6.5-17.3-15.4C924.5,446.7,919.6,449.7,914.3,452.1z"/>
			</g>
			<g>
				<path fill="#FFE19B" d="M869.6,356.9c-83.9-3.6-64.7,77.5-64.7,77.5c22.4,26.9,64.7,22.6,64.7,22.6s42.3,4.3,64.7-22.6
					C934.3,434.5,953.5,353.3,869.6,356.9z"/>
				<path fill="#3C2415" d="M876.4,459.7c-3.6,0-6-0.2-6.8-0.3c-3.8,0.4-44.2,3.3-66.5-23.5c-0.2-0.3-0.4-0.6-0.5-0.9
					c-0.4-1.5-8.5-37.3,11-60.9c11.6-14,30.4-20.6,56-19.5c25.5-1.1,44.4,5.5,56,19.5c19.5,23.6,11.3,59.4,11,60.9
					c-0.1,0.3-0.2,0.7-0.5,0.9C918.5,457,889.7,459.7,876.4,459.7z M807,433.4c21.5,25.2,61.9,21.4,62.3,21.4c0.2,0,0.3,0,0.5,0
					c0.4,0,40.9,3.8,62.3-21.4c0.9-4.4,6.7-36-10.2-56.4c-10.6-12.9-28.2-18.9-52.3-17.8c-0.1,0-0.1,0-0.2,0
					c-24.1-1-41.7,5-52.3,17.8C800.4,397.4,806.1,429,807,433.4z"/>
			</g>
			<path fill="#3C2415" d="M889.3,280.4c-7.3,0-14.5-3.2-21.3-9.4c-0.9-0.9-1-2.3-0.1-3.3c0.9-0.9,2.3-1,3.3-0.1
				c6.3,5.8,12.8,8.6,19.3,8.2c9.8-0.5,16.4-7.9,16.5-8c0.8-1,2.3-1.1,3.3-0.2c1,0.8,1.1,2.3,0.2,3.3c-0.3,0.4-8,9-19.7,9.6
				C890.2,280.4,889.7,280.4,889.3,280.4z"/>
			<g>
				<path fill="#F47C57" d="M899.8,276.9c-18.9,5.3-30.2-7.6-30.2-7.6s-11.3,12.9-30.2,7.6c0,0-1.9,11.6,0.9,22.2
					c2.8,10.5,10.4,20,29.3,16.4c18.9,3.7,26.5-5.8,29.3-16.4C901.7,288.5,899.8,276.9,899.8,276.9z"/>
				<path fill="#3C2415" d="M877.4,318.6c-2.4,0-5-0.2-7.8-0.8c-21,3.9-28.7-7.7-31.5-18.1c-3-11-1-22.7-1-23.2
					c0.1-0.6,0.5-1.2,1-1.6c0.6-0.3,1.2-0.4,1.9-0.3c17.3,4.8,27.7-6.8,27.8-6.9c0.9-1,2.6-1,3.5,0c0.4,0.5,10.6,11.7,27.8,6.9
					c0.6-0.2,1.3-0.1,1.9,0.3c0.6,0.4,0.9,0.9,1,1.6c0.1,0.5,2,12.2-1,23.2C898.7,308.7,892.6,318.6,877.4,318.6z M869.6,313.1
					c0.1,0,0.3,0,0.4,0c14.3,2.8,23.2-2.2,26.6-14.7c1.9-7.1,1.5-14.9,1.2-18.8c-14.5,3-24.4-3.9-28.2-7.2
					c-3.8,3.4-13.7,10.2-28.2,7.2c-0.4,3.9-0.8,11.6,1.2,18.8c3.4,12.5,12.3,17.5,26.6,14.7C869.3,313.1,869.4,313.1,869.6,313.1z"
					/>
			</g>
			<g>
				<path fill="#FFE19B" d="M869.6,289.4c-15.4,0.3-24.6,5.7-29.3,9.7c2.8,10.5,10.4,20,29.3,16.4c18.9,3.7,26.5-5.8,29.3-16.4
					C894.2,295.1,885,289.7,869.6,289.4z"/>
				<path fill="#3C2415" d="M877.4,318.6c-2.4,0-5-0.2-7.8-0.8c-21,3.9-28.7-7.7-31.5-18.1c-0.2-0.9,0.1-1.8,0.7-2.4
					c5.3-4.5,14.9-10,30.7-10.3c0,0,0.1,0,0.1,0c15.8,0.3,25.5,5.8,30.7,10.3c0.7,0.6,1,1.5,0.7,2.4
					C898.7,308.7,892.6,318.6,877.4,318.6z M869.6,313.1c0.1,0,0.3,0,0.4,0c13.7,2.7,22.5-1.8,26.2-13.3c-4.9-3.8-13.3-8-26.6-8.2
					c-13.3,0.3-21.7,4.4-26.6,8.2c3.7,11.5,12.5,15.9,26.2,13.3C869.3,313.1,869.4,313.1,869.6,313.1z"/>
			</g>
			<circle fill="#3C2415" cx="941.5" cy="257.5" r="10.1"/>
			<ellipse fill="#EF4136" cx="955.3" cy="279" rx="13.7" ry="5.3"/>
			<g>
				<path fill="#F7941D" d="M982.2,357.3c0,0-20.2-25,16.8-47.2c0,0-1.5,12.4,4.4,21.7c0,0,10.4,14.4-8.1,28.6L982.2,357.3z"/>
				<path fill="#3C2415" d="M995.3,362.7c-0.2,0-0.4,0-0.5-0.1l-13.1-3.1c-0.5-0.1-0.9-0.4-1.3-0.8c-0.3-0.4-7.9-9.9-5.6-22.7
					c1.8-10.5,9.6-19.9,23-27.9c0.8-0.5,1.7-0.4,2.4,0c0.7,0.5,1.1,1.3,1,2.2c0,0.1-1.3,11.7,4.1,20.2c0,0,11.4,16.3-8.6,31.7
					C996.3,362.5,995.8,362.7,995.3,362.7z M983.5,355.2l11.2,2.7c15.4-12.5,7.1-24.3,6.8-24.8c-4.1-6.5-5-14-5-18.8
					c-9.9,6.8-15.7,14.3-17.1,22.4C977.7,345.9,982.1,353.1,983.5,355.2z"/>
			</g>
			<g>
				<path fill="#F9A86D" d="M982.2,357.3c-8.1,16.1-24.4,24.3-34.1,28c0.2,8.5-0.4,13.7-0.4,13.7c-0.6,8-2.3,14.9-4.7,20.9
					c38.5-16.3,52.3-59.4,52.3-59.4L982.2,357.3z"/>
				<path fill="#3C2415" d="M943,422.1c-0.6,0-1.2-0.2-1.6-0.7c-0.7-0.7-0.9-1.6-0.5-2.5c2.4-6,3.9-12.8,4.5-20.2
					c0-0.1,0.6-5.2,0.4-13.5c0-1,0.6-1.9,1.5-2.2c8.9-3.3,25-11.2,32.9-26.8c0.5-1,1.6-1.5,2.6-1.2l13.1,3.1
					c0.6,0.1,1.2,0.6,1.5,1.1c0.3,0.6,0.4,1.2,0.2,1.8c-0.6,1.8-14.6,44.3-53.6,60.8C943.6,422.1,943.3,422.1,943,422.1z
					 M950.4,386.8c0.1,7.6-0.4,12.2-0.4,12.4c-0.5,5.7-1.5,11.2-3,16.2c28.5-14.7,41.9-44.7,45.3-53.4l-8.9-2.1
					C975.1,375,959.8,383.1,950.4,386.8z"/>
			</g>
			<g>
				<path fill="#F9A86D" d="M942.8,346.9c14,8,66.5,39.4,4.6,26.3C946.6,365.5,945.3,356.6,942.8,346.9z"/>
				<path fill="#3C2415" d="M969.7,378.7c-4.7,0-11.9-0.9-22.8-3.2c-1-0.2-1.7-1-1.8-2c-0.8-8.8-2.3-17.5-4.5-25.9
					c-0.2-0.9,0.1-1.9,0.8-2.4c0.7-0.6,1.7-0.6,2.5-0.2c38.1,21.8,35.8,27.8,35,30C978.1,377,976.2,378.7,969.7,378.7z M949.5,371.3
					c22.1,4.5,24.9,2.2,25.1,1.9c0-1.9-7.5-9.3-28.3-21.6C947.7,358.1,948.8,364.7,949.5,371.3z"/>
			</g>
		</g>
		<g>
			<g>
				<path fill="#FEF163" d="M375.9,246l-11.2,101.2l-43,2.3l-25.3,39.6l-14.4,8.2l-0.8,8.7l-0.8,8.8l-24.3,13.4
					c1.4-5.6,2.1-12.7,1.7-21.4l9.2-5.4v-18.5l16-12.8l1.4-74L375.9,246z"/>
				<path fill="#3C2415" d="M256.2,430.5c-0.5,0-1-0.2-1.4-0.5c-0.7-0.6-1.1-1.5-0.8-2.4c1.4-6,2-13,1.6-20.8c0-0.9,0.4-1.7,1.1-2.1
					l8-4.7v-17.2c0-0.7,0.3-1.4,0.9-1.8l15.1-12.1l1.4-72.9c0-0.8,0.5-1.6,1.2-2l91.5-50.1c0.8-0.4,1.7-0.4,2.4,0.1
					c0.7,0.5,1.1,1.3,1,2.2L367,347.4c-0.1,1.1-1,2-2.2,2.1l-41.8,2.3l-24.7,38.6c-0.2,0.3-0.5,0.6-0.8,0.8l-13.3,7.6l-1.4,16.3
					c-0.1,0.8-0.5,1.4-1.2,1.8l-24.3,13.4C257,430.4,256.6,430.5,256.2,430.5z M260.2,408.1c0.2,5.6-0.1,10.9-0.8,15.7l18.8-10.4
					l1.4-16.2c0.1-0.8,0.5-1.4,1.2-1.8l13.9-7.9l25-39.1c0.4-0.6,1.1-1,1.8-1.1l41-2.2l10.5-94.8l-86.4,47.4l-1.4,72.7
					c0,0.7-0.3,1.3-0.9,1.8L269.4,384v17.4c0,0.8-0.4,1.6-1.1,2L260.2,408.1z"/>
			</g>
			<g>
				<path fill="#3C2415" d="M281.2,406l-0.8,8.8l-24.3,13.4c1.4-5.6,2.1-12.7,1.7-21.4l9.2-5.4v-9.9L281.2,406z"/>
				<path fill="#3C2415" d="M256.2,430.5c-0.5,0-1-0.2-1.4-0.5c-0.7-0.6-1.1-1.5-0.8-2.4c1.4-6,2-13,1.6-20.8c0-0.9,0.4-1.7,1.1-2.1
					l8-4.7v-8.6c0-0.9,0.6-1.8,1.4-2.1c0.9-0.4,1.9-0.1,2.5,0.5l14.2,14.5c0.5,0.5,0.7,1.1,0.7,1.8l-0.8,8.8
					c-0.1,0.8-0.5,1.4-1.2,1.8l-24.3,13.4C257,430.4,256.6,430.5,256.2,430.5z M260.2,408.1c0.2,5.6-0.1,10.9-0.8,15.7l18.8-10.4
					l0.6-6.5l-9.5-9.7v4.2c0,0.8-0.4,1.6-1.1,2L260.2,408.1z"/>
			</g>
			<g>
				<path fill="#FEF163" d="M289.2,286.9c0,0,23.4-96.8-97.6-99.1c-121,2.3-97.6,99.1-97.6,99.1c-23.1,62.7,43.9,67.7,43.9,67.7
					c-28.5,74,0,93.2,0,93.2c10.6,8.2,22.1,7.6,28.8,6.3c2.6-0.5,5.1-1.6,7.5-2.8c5.8-2.8,17.5-3.4,17.5-3.4s11.6,0.6,17.5,3.4
					c2.4,1.2,4.9,2.3,7.5,2.8c6.6,1.4,18.1,1.9,28.8-6.3c0,0,28.5-19.3,0-93.2C245.3,354.6,312.3,349.6,289.2,286.9z"/>
				<path fill="#3C2415" d="M224.4,457.2c-3.3,0-6.1-0.4-8.3-0.8c-3-0.6-5.7-1.9-8.1-3c-5.3-2.6-16.5-3.2-16.6-3.2
					c0.1,0-11,0.6-16.3,3.2c-2.3,1.1-5.1,2.4-8.1,3c-6.5,1.3-19.1,2.2-30.6-6.7c-1.1-0.7-28.9-20.6-1.8-93.1
					c-8.2-1.2-30.5-5.9-41.6-23.1c-7.8-12.1-8.3-27.8-1.5-46.7c-1.2-5.5-7.5-40,13.8-67.6c16.7-21.6,45.6-32.9,86.1-33.7
					c40.6,0.8,69.6,12.1,86.2,33.7c21.3,27.6,15,62.1,13.8,67.6c6.8,18.9,6.3,34.6-1.5,46.7c-11.1,17.2-33.4,21.9-41.6,23.1
					c27.1,72.5-0.7,92.4-1.9,93.2C239,455.6,230.9,457.2,224.4,457.2z M191.5,445.5c0.7,0,12.4,0.7,18.6,3.7c2.1,1,4.5,2.1,7,2.6
					c7,1.4,17.3,1.6,26.9-5.8c0.4-0.3,26.6-19.6-0.7-90.6c-0.3-0.7-0.2-1.4,0.2-2.1c0.4-0.6,1.1-1,1.8-1.1c0.3,0,28.9-2.4,41.1-21.3
					c7.1-11,7.3-25.5,0.8-43.2c-0.2-0.4-0.2-0.9-0.1-1.3c0.1-0.4,8.5-36.8-12.9-64.4c-15.8-20.4-43.5-31.1-82.5-31.8
					c-38.9,0.7-66.7,11.5-82.5,31.9c-21.4,27.7-12.9,64-12.8,64.4c0.1,0.4,0.1,0.9-0.1,1.3c-6.5,17.7-6.3,32.3,0.8,43.2
					c12.2,19,40.8,21.3,41.1,21.3c0.7,0.1,1.4,0.5,1.8,1.1c0.4,0.6,0.5,1.4,0.2,2.1c-27.5,71.4-1.1,90.3-0.9,90.5
					c9.7,7.5,20,7.4,27,5.9c2.5-0.5,4.9-1.6,7-2.6C179.3,446.2,191,445.5,191.5,445.5z"/>
			</g>
			<g>
				<path fill="#FEF163" d="M135.1,445.2l-15.6,12.9c0,0-9.1,9.9,26.2-5.8C145.7,452.3,138.3,449.7,135.1,445.2z"/>
				<path fill="#3C2415" d="M120.1,463.5c-2,0-2.9-0.7-3.5-1.5c-1.3-1.8-0.3-4,1.1-5.5c0.1-0.1,0.1-0.1,0.2-0.2l15.6-12.9
					c0.5-0.4,1.1-0.6,1.8-0.5c0.6,0.1,1.2,0.4,1.6,1c2.3,3.3,7.6,5.7,9.5,6.4c0.9,0.3,1.5,1.1,1.5,2.1c0,0.9-0.5,1.8-1.4,2.2
					C130.9,461.4,123.7,463.5,120.1,463.5z M134.8,448.4l-12.3,10.2c2.6-0.6,7.8-2.2,17.6-6.4C138.3,451.3,136.4,450,134.8,448.4z"
					/>
			</g>
			<g>
				<path fill="#FEF163" d="M148.1,194c0,0-23.3,6.5-37.7,22.8c0,0-20.1-11.2-29.6-42.7C76.5,160,74.4,141.9,77,119
					c0,0,16.1,3.6,33.7,18C124.6,148.2,139.4,166.1,148.1,194z"/>
				<path fill="#3C2415" d="M110.4,219.1c-0.4,0-0.8-0.1-1.1-0.3c-0.9-0.5-21.1-12-30.7-44c-5-16.3-6.3-35.2-3.8-56.1
					c0.1-0.7,0.4-1.2,1-1.6c0.5-0.4,1.2-0.5,1.8-0.4c0.7,0.2,16.9,3.9,34.7,18.4c17.7,14.4,30.5,34,38.1,58.2
					c0.2,0.6,0.1,1.2-0.2,1.8c-0.3,0.5-0.8,1-1.4,1.1c-0.2,0.1-22.9,6.5-36.6,22.1C111.7,218.8,111.1,219.1,110.4,219.1z
					 M79.1,121.9c-2,19.2-0.6,36.5,3.9,51.5c7.6,25.2,22.3,37.1,27,40.4c12.1-12.8,29-19.3,35.2-21.3c-7.4-22.3-19.4-40.4-35.9-53.8
					C96.4,128.1,84.2,123.5,79.1,121.9z"/>
			</g>
			<path fill="#3C2415" d="M180,297.6c-1.8,0-3-0.3-3-0.3c-3-0.8-5.2-2.4-6.3-4.8c-2-4.2,0.2-9.2,0.3-9.4c0.3-0.8,1.3-1.1,2-0.8
				c0.8,0.3,1.1,1.3,0.8,2c0,0-1.7,3.9-0.3,6.8c0.7,1.5,2.1,2.5,4.3,3.1c0.3,0.1,8,2,12.5-6.4c0.4-0.8,1.3-1,2.1-0.6
				c0.8,0.4,1,1.3,0.6,2.1C189.2,296.4,183.5,297.6,180,297.6z"/>
			<circle fill="#3C2415" cx="145.9" cy="282.6" r="9.3"/>
			<circle fill="#EF4136" cx="121.7" cy="306.8" r="14.8"/>
			<circle fill="#FFFFFF" cx="116.1" cy="301.2" r="3.2"/>
			<path fill="#3C2415" d="M154.1,412.2c-0.7,0-1.3-0.1-2-0.3c-7-1.7-12.8-12.1-13.1-12.5c-0.4-0.7-0.1-1.7,0.6-2.1
				c0.7-0.4,1.7-0.1,2.1,0.6c1.5,2.7,6.4,9.9,11.1,11.1c1.4,0.3,2.6,0.1,3.8-0.6c0.1,0,5.6-4.6-6-32c-0.3-0.8,0-1.7,0.8-2
				c0.8-0.3,1.7,0,2,0.8c12.6,29.7,6.2,35.1,4.8,35.9C157,411.8,155.6,412.2,154.1,412.2z"/>
			<g>
				<path fill="#3C2415" d="M110.8,136.9c-16.1,11.5-25.2,25.9-30,37.2C76.5,160,74.4,141.9,77,119C77,119,93.2,122.5,110.8,136.9z"
					/>
				<path fill="#3C2415" d="M80.8,176.4c0,0-0.1,0-0.1,0c-1-0.1-1.8-0.7-2.1-1.6c-5-16.3-6.3-35.2-3.8-56.1c0.1-0.7,0.4-1.2,1-1.6
					c0.5-0.4,1.2-0.5,1.8-0.4c0.7,0.2,16.9,3.9,34.7,18.4c0.6,0.5,0.9,1.1,0.8,1.9c0,0.7-0.4,1.4-1,1.8
					c-16.3,11.7-24.9,26.1-29.2,36.2C82.5,175.8,81.7,176.4,80.8,176.4z M79.1,121.9c-1.7,16.7-0.9,32,2.3,45.5
					c4.8-9.4,12.8-20.8,25.6-30.6C94.9,127.6,83.8,123.4,79.1,121.9z"/>
			</g>
			<g>
				<path fill="#FEF163" d="M248.1,445.2l15.6,12.9c0,0,9.1,9.9-26.2-5.8C237.5,452.3,244.9,449.7,248.1,445.2z"/>
				<path fill="#3C2415" d="M263.1,463.5c-3.5,0-10.7-2.1-26.5-9.1c-0.9-0.4-1.4-1.3-1.4-2.2c0-0.9,0.6-1.8,1.5-2.1
					c0.1,0,6.7-2.4,9.5-6.4c0.4-0.5,0.9-0.9,1.6-1c0.6-0.1,1.3,0.1,1.8,0.5l15.6,12.9c0.1,0.1,0.2,0.1,0.2,0.2
					c1.4,1.5,2.4,3.7,1.1,5.5C265.9,462.8,265.1,463.5,263.1,463.5z M243.1,452.3c9.8,4.2,15,5.8,17.6,6.4l-12.3-10.2
					C246.8,450,244.9,451.3,243.1,452.3z"/>
			</g>
			<g>
				<path fill="#FEF163" d="M235.1,194c0,0,23.3,6.5,37.7,22.8c0,0,20.1-11.2,29.6-42.7c4.3-14.1,6.4-32.2,3.7-55.1
					c0,0-16.1,3.6-33.7,18C258.6,148.2,243.8,166.1,235.1,194z"/>
				<path fill="#3C2415" d="M272.8,219.1c-0.6,0-1.3-0.3-1.7-0.8c-13.7-15.5-36.4-22-36.6-22.1c-0.6-0.2-1.1-0.6-1.4-1.1
					c-0.3-0.5-0.4-1.2-0.2-1.8c7.5-24.2,20.4-43.7,38.1-58.2c17.8-14.6,34-18.3,34.7-18.4c0.6-0.1,1.3,0,1.8,0.4
					c0.5,0.4,0.9,1,1,1.6c2.4,20.9,1.2,39.8-3.8,56.1c-9.7,32.1-29.9,43.6-30.7,44C273.5,219,273.2,219.1,272.8,219.1z M238,192.5
					c6.1,2,23.1,8.5,35.2,21.3c4.7-3.3,19.4-15.2,27-40.4c4.6-15,5.9-32.3,3.9-51.5c-5.1,1.6-17.3,6.2-30.3,16.8
					C257.4,152.1,245.3,170.2,238,192.5z"/>
			</g>
			<path fill="#3C2415" d="M203.2,297.6c-3.5,0-9.3-1.2-13-8.2c-0.4-0.8-0.1-1.7,0.6-2.1c0.7-0.4,1.7-0.1,2.1,0.6
				c4.4,8.4,12.2,6.4,12.5,6.4c2.1-0.6,3.6-1.6,4.3-3.1c1.4-2.9-0.3-6.8-0.3-6.8c-0.3-0.8,0-1.7,0.8-2c0.8-0.3,1.7,0,2,0.8
				c0.1,0.2,2.3,5.2,0.3,9.4c-1.1,2.3-3.2,3.9-6.3,4.8C206.2,297.3,205,297.6,203.2,297.6z"/>
			<circle fill="#3C2415" cx="237.3" cy="282.6" r="9.3"/>
			<circle fill="#EF4136" cx="261.5" cy="306.8" r="14.8"/>
			<circle fill="#FFFFFF" cx="267.1" cy="301.2" r="3.2"/>
			<path fill="#3C2415" d="M229.1,412.2c-1.5,0-2.9-0.4-4.2-1.3c-1.3-0.7-7.7-6.1,4.9-35.8c0.3-0.8,1.2-1.1,2-0.8
				c0.8,0.3,1.1,1.2,0.8,2c-11.6,27.4-6.1,32-6,32c1.2,0.8,2.4,1,3.8,0.6c4.7-1.2,9.6-8.4,11.1-11.1c0.4-0.7,1.4-1,2.1-0.6
				c0.7,0.4,1,1.4,0.6,2.1c-0.2,0.4-6.1,10.8-13.1,12.5C230.4,412.1,229.7,412.2,229.1,412.2z"/>
			<g>
				<path fill="#3C2415" d="M272.4,136.9c16.1,11.5,25.2,25.9,30,37.2c4.3-14.1,6.4-32.2,3.7-55.1C306.1,119,290,122.5,272.4,136.9z
					"/>
				<path fill="#3C2415" d="M302.4,176.4c-0.9,0-1.8-0.5-2.1-1.4c-4.3-10.1-12.9-24.5-29.2-36.2c-0.6-0.4-0.9-1.1-1-1.8
					c0-0.7,0.3-1.4,0.8-1.9c17.8-14.6,34-18.3,34.7-18.4c0.6-0.1,1.3,0,1.8,0.4c0.5,0.4,0.9,1,1,1.6c2.4,20.9,1.2,39.8-3.8,56.1
					c-0.3,0.9-1.1,1.6-2.1,1.6C302.5,176.4,302.5,176.4,302.4,176.4z M276.2,136.9c12.8,9.8,20.8,21.2,25.6,30.6
					c3.2-13.6,4-28.8,2.3-45.5C299.4,123.4,288.3,127.6,276.2,136.9z"/>
			</g>
		</g>
		<g>
			<g>
				<path fill="#D7B07F" d="M634,291.5c0,0,20.3-108.6-95.3-105.6c-115.6-3.1-95.3,105.6-95.3,105.6c-18.5,59.6,42.9,63.9,42.9,63.9
					c-18,13.3-5.1,17.5-5.1,17.5c-13.1,18,4,15.3,4,15.3c-22,39.3-10.8,57-10.8,57c9.2,21.9,28.1,15,28.1,15
					c18.1-8.8,27-8.7,36.2-8.7c9.2,0,18.1-0.2,36.2,8.7c0,0,18.9,6.9,28.1-15c0,0,11.2-17.8-10.8-57c0,0,17.1,2.7,4-15.3
					c0,0,12.8-4.1-5.1-17.5C591.1,355.4,652.5,351.1,634,291.5z"/>
				<path fill="#3C2415" d="M581.7,463.5c-4.4,0-7.5-1.1-7.6-1.1c-17.5-8.5-25.9-8.5-34.9-8.5h-1.1c-8.9,0-17.4,0-34.7,8.4
					c-0.4,0.2-21.2,7.5-31.2-16c-1.2-2.1-10.1-19.7,8.9-55.7c-2.3-0.3-5-1.1-6.4-3.4c-1.9-3.1-0.9-7.5,2.9-13.4
					c-1.5-1.1-2.9-2.7-3.3-5c-0.6-3.6,1.5-7.4,6.2-11.8c-8.8-1.6-26.3-6.5-36.2-20.9c-7.9-11.5-9.1-26.6-3.5-44.8
					c-1-5.7-7.2-49.2,18.6-79.5c16.8-19.7,43.4-29.2,79.1-28.2c35.6-1,62.2,8.5,79,28.2c25.8,30.3,19.5,73.7,18.6,79.5
					c5.5,18.2,4.3,33.2-3.5,44.8c-9.8,14.4-27.3,19.3-36.2,20.9c4.8,4.3,6.8,8.2,6.2,11.8c-0.4,2.3-1.8,3.9-3.3,5
					c3.9,5.9,4.8,10.3,2.9,13.4c-1.4,2.3-4.1,3.2-6.4,3.4c19,36,10.1,53.6,8.9,55.7C598.9,460.7,588.7,463.5,581.7,463.5z
					 M539.8,449.2c8.9,0,18.3,0.2,36.2,8.9c0.5,0.2,16.7,5.7,25-13.8c0-0.1,0.1-0.2,0.2-0.3c0.1-0.2,10-17.4-10.8-54.7
					c-0.4-0.8-0.4-1.7,0.1-2.4c0.5-0.7,1.4-1.1,2.2-1c2,0.3,5.2,0.1,6-1.2c0.4-0.6,1.1-3.1-4.2-10.4c-0.4-0.6-0.6-1.4-0.3-2.1
					c0.2-0.7,0.8-1.3,1.5-1.5c0,0,2.5-0.9,2.8-2.7c0.2-1.2-0.3-4.5-8.6-10.7c-0.8-0.6-1.1-1.6-0.8-2.5c0.3-0.9,1.1-1.6,2.1-1.7
					c0.3,0,26.1-2.1,38.1-19.7c7.1-10.4,8-24.3,2.8-41.3c-0.1-0.4-0.1-0.7-0.1-1.1c0.1-0.5,8.2-46.2-17.5-76.2
					c-15.9-18.6-41.2-27.5-75.5-26.6c-34.4-0.9-59.8,8-75.6,26.6c-25.7,30.1-17.5,75.7-17.4,76.2c0.1,0.4,0,0.8-0.1,1.1
					c-5.3,17-4.3,30.9,2.8,41.3c12,17.6,37.8,19.6,38.1,19.6c1,0.1,1.8,0.7,2.1,1.7c0.3,0.9-0.1,1.9-0.8,2.5
					c-8.3,6.2-8.8,9.6-8.6,10.7c0.3,1.8,2.8,2.7,2.8,2.7c0.7,0.2,1.3,0.8,1.5,1.5c0.2,0.7,0.1,1.5-0.3,2.1
					c-5.4,7.3-4.6,9.8-4.2,10.4c0.8,1.4,4.3,1.5,6,1.2c0.9-0.1,1.8,0.2,2.3,1c0.5,0.7,0.6,1.7,0.1,2.4
					c-20.9,37.3-10.9,54.5-10.8,54.7c0.1,0.1,0.1,0.2,0.2,0.3c8.2,19.6,24.5,14,25.2,13.7c18-8.8,27.5-8.8,36.5-8.8h1.1
					C539.4,449.2,539.6,449.2,539.8,449.2z"/>
			</g>
			<g>
				<path fill="#D7B07F" d="M494.2,191.7c-39.7-54.5-97.3-52.8-97.3-52.8c-3.1,76.9,32.4,107.3,46.5,116.3
					C446.9,231.9,458.9,203.7,494.2,191.7z"/>
				<path fill="#3C2415" d="M443.4,257.6c-0.4,0-0.9-0.1-1.2-0.4c-15.3-9.8-50.6-41-47.5-118.3c0-1.2,1-2.2,2.2-2.2
					c0.6,0,59.3-1.1,99.2,53.7c0.4,0.6,0.6,1.4,0.3,2.1c-0.2,0.7-0.8,1.3-1.5,1.5c-34.8,11.8-46,40.1-49.3,61.7
					c-0.1,0.8-0.6,1.4-1.3,1.8C444,257.5,443.7,257.6,443.4,257.6z M399.2,141.3c-2.1,68.7,26.9,98.9,42.5,110
					c4.1-21.7,16-48.3,48.8-60.7C456.4,145.9,409.7,141.7,399.2,141.3z"/>
			</g>
			<path fill="#3C2415" d="M471.6,203.7L471.6,203.7c-28.2-40.4-59.2-46.6-59.2-46.6c6.9,51.5,38.4,73,38.4,73l0,0
				C455.2,220.5,461.8,211.2,471.6,203.7z"/>
			<g>
				<path fill="#D7B07F" d="M489.3,447.6c0,0,0.6-19.5,16-32.1c0,0,12.7-9.4,11.4,7.8c-0.1,1.9-0.5,3.7-1,5.5
					c-1.6,5.9-6,20.4-12.7,24.8C503.1,453.7,489.3,463.7,489.3,447.6z"/>
				<path fill="#3C2415" d="M495.1,459.1c-1.2,0-2.4-0.2-3.5-0.8c-3-1.6-4.6-5.1-4.6-10.7c0,0,0,0,0-0.1c0-0.8,0.8-20.7,16.8-33.8
					c0.8-0.6,6.8-4.8,11.3-2.3c3.1,1.7,4.3,5.7,3.8,12.1c-0.1,1.9-0.5,3.9-1,5.9c-2.1,7.8-6.6,21.5-13.6,26.1
					C503.8,456,499.4,459.1,495.1,459.1z M491.6,447.7c0,3.5,0.7,5.8,2.1,6.5c2.1,1.1,6.3-1.1,8-2.4c4.2-2.8,8.6-11.6,11.8-23.5
					c0.5-1.8,0.8-3.5,0.9-5.1c0.3-4.1-0.2-7-1.5-7.7c-1.5-0.8-4.8,0.8-6.2,1.9C492.7,428.8,491.7,446.8,491.6,447.7z"/>
			</g>
			<path fill="#3C2415" d="M498.4,414c-4.2,0-8.8-4.5-9.4-5.1c-0.6-0.6-0.6-1.6,0-2.2c0.6-0.6,1.6-0.6,2.2,0c1.7,1.7,5.8,5,8,4.1
				c1.6-0.7,2.4-4.1,2.3-9.4c0-0.9,0.6-1.6,1.5-1.6c0.9-0.1,1.6,0.6,1.6,1.5c0.3,7-1.1,11-4.1,12.3C499.8,413.9,499.1,414,498.4,414
				z"/>
			<path fill="#3C2415" d="M532.3,294.7c-2.7,0-4.7-0.7-6-2.2c-3.5-4-0.4-11.4,0-12.2c0.3-0.8,1.3-1.1,2-0.8c0.8,0.3,1.1,1.3,0.8,2
				c-0.7,1.6-2.4,6.8-0.5,8.9c1.4,1.6,4.7,1.6,9.6,0.1c0.8-0.2,1.7,0.2,1.9,1c0.2,0.8-0.2,1.7-1,1.9
				C536.5,294.3,534.2,294.7,532.3,294.7z"/>
			<circle fill="#EF4136" cx="480.3" cy="292.2" r="9.1"/>
			<circle fill="#3C2415" cx="493.5" cy="279.6" r="10.6"/>
			<g>
				<path fill="#D7B07F" d="M583.2,191.7c39.7-54.5,97.3-52.8,97.3-52.8c3.1,76.9-32.4,107.3-46.5,116.3
					C630.4,231.9,618.5,203.7,583.2,191.7z"/>
				<path fill="#3C2415" d="M634,257.6c-0.3,0-0.6-0.1-1-0.2c-0.7-0.3-1.2-1-1.3-1.8c-3.3-21.6-14.5-49.9-49.3-61.7
					c-0.7-0.2-1.2-0.8-1.5-1.5c-0.2-0.7-0.1-1.5,0.3-2.1c40-54.9,98.7-53.7,99.2-53.7c1.2,0,2.2,1,2.2,2.2
					c3.1,77.3-32.2,108.5-47.5,118.3C634.9,257.4,634.4,257.6,634,257.6z M586.9,190.6c32.8,12.4,44.8,39,48.8,60.7
					c15.6-11.2,44.7-41.3,42.5-110C667.7,141.7,620.9,146,586.9,190.6z"/>
			</g>
			<g>
				<path fill="#F5EAB1" d="M596.2,372.9c0,0,12.8-4.1-5.1-17.5c-4.6-11.6-24.4-7.2-24.4-7.2c15.4-19.5-28-3.6-28-3.6
					s-43.4-15.9-28,3.6c0,0-19.8-4.4-24.4,7.2c-18,13.3-5.1,17.5-5.1,17.5c-13.1,18,4,15.3,4,15.3s-0.4,20.6,24,0
					c0,0-4.4,16,16.2,4.6c0,0,2.3,15.7,13.3,4.6c11,11.1,13.3-4.6,13.3-4.6c20.6,11.4,16.2-4.6,16.2-4.6c24.4,20.6,24,0,24,0
					S609.3,390.9,596.2,372.9z"/>
				<path fill="#3C2415" d="M545.7,402.9c-2.1,0-4.5-1.1-7-3.4c-3.2,2.9-6.2,4-8.8,3.1c-3.4-1.1-4.9-5-5.6-7.5
					c-7,3.6-11.8,4.3-14.7,2c-1.7-1.4-2.3-3.5-2.3-5.4c-8.2,6.4-14.3,8.5-18.6,6.4c-3.6-1.7-4.6-5.9-4.9-8.3
					c-2.4,0.1-6.4-0.2-8.2-3.2c-1.8-2.9-0.7-7.3,3.3-13.2c-1.4-0.9-3.2-2.4-3.6-4.9c-0.7-4.1,2.5-8.7,9.8-14.2
					c4-9.1,16.1-9,22.3-8.3c-1.3-2.2-2.2-4.9-0.8-7c4.1-5.7,24.9,1.2,32.1,3.8c7.1-2.6,27.9-9.5,32.1-3.8c1.5,2.1,0.5,4.8-0.8,7
					c6.2-0.7,18.3-0.8,22.3,8.3c7.3,5.5,10.5,10.1,9.8,14.2c-0.4,2.5-2.2,4-3.6,4.9c4,5.9,5.1,10.3,3.3,13.2c-1.8,3-5.9,3.3-8.2,3.2
					c-0.3,2.4-1.3,6.6-4.9,8.3c-4.3,2-10.4-0.1-18.6-6.4c-0.1,1.9-0.6,4-2.3,5.4c-2.8,2.2-7.7,1.6-14.7-2c-0.7,2.5-2.3,6.4-5.6,7.5
					C546.9,402.8,546.3,402.9,545.7,402.9z M525.3,391.2c0.2,0,0.5,0.1,0.7,0.2c0.5,0.2,0.8,0.7,0.8,1.2c0.2,1.6,1.5,6.3,4,7.1
					c2.1,0.7,4.8-1.5,6.7-3.4c0.6-0.6,1.6-0.6,2.2,0c1.9,1.9,4.6,4.1,6.7,3.4c2.5-0.8,3.8-5.5,4-7.1c0.1-0.5,0.4-0.9,0.8-1.2
					c0.5-0.2,1-0.2,1.4,0c8.8,4.9,12,4.1,13.1,3.3c1.7-1.3,1.2-4.9,0.8-6.1c-0.2-0.7,0.1-1.3,0.7-1.7c0.6-0.4,1.3-0.3,1.8,0.1
					c11.2,9.5,16.2,9.3,18.2,8.4c3.3-1.6,3.3-7.1,3.3-7.2c0-0.5,0.2-0.9,0.5-1.2c0.3-0.3,0.8-0.4,1.3-0.4c1.4,0.2,5.6,0.4,6.8-1.6
					c0.7-1.1,1-4-4.3-11.3c-0.3-0.4-0.4-0.9-0.2-1.4c0.2-0.5,0.5-0.8,1-1c0.1,0,3-1,3.3-3.3c0.3-1.6-0.6-5.2-8.9-11.4
					c-0.2-0.2-0.4-0.4-0.5-0.7c-4.1-10.2-22.5-6.3-22.6-6.2c-0.6,0.1-1.3-0.1-1.6-0.7c-0.3-0.6-0.3-1.3,0.1-1.8
					c2.8-3.6,3.3-5.6,2.8-6.3c-2-2.7-16.6,0.5-29,5.1c-0.3,0.1-0.7,0.1-1.1,0c-12.4-4.6-27.1-7.8-29-5.1c-0.5,0.7,0,2.7,2.8,6.3
					c0.4,0.5,0.4,1.2,0.1,1.8c-0.3,0.6-1,0.8-1.6,0.7c-0.2,0-18.6-4-22.6,6.2c-0.1,0.3-0.3,0.5-0.5,0.7c-8.4,6.2-9.2,9.9-8.9,11.5
					c0.4,2.3,3.3,3.3,3.3,3.3c0.5,0.2,0.8,0.5,1,1c0.2,0.5,0.1,1-0.2,1.4c-5.3,7.2-4.9,10.2-4.3,11.3c1.2,2,5.4,1.8,6.8,1.6
					c0.5-0.1,0.9,0.1,1.2,0.4c0.3,0.3,0.5,0.7,0.5,1.2c0,0.1,0,5.6,3.3,7.2c2,0.9,7,1.1,18.2-8.4c0.5-0.4,1.3-0.5,1.8-0.1
					c0.6,0.4,0.8,1.1,0.7,1.7c-0.3,1.3-0.8,4.8,0.8,6.1c1.1,0.9,4.3,1.6,13.1-3.3C524.8,391.3,525.1,391.2,525.3,391.2z"/>
			</g>
			<path fill="#3C2415" d="M605.8,203.7L605.8,203.7C634.1,163.3,665,157,665,157c-6.9,51.5-38.4,73-38.4,73l0,0
				C622.2,220.5,615.6,211.2,605.8,203.7z"/>
			<g>
				<path fill="#D7B07F" d="M588.1,447.6c0,0-0.6-19.5-16-32.1c0,0-12.7-9.4-11.4,7.8c0.1,1.9,0.5,3.7,1,5.5
					c1.6,5.9,6,20.4,12.7,24.8C574.3,453.7,588.1,463.7,588.1,447.6z"/>
				<path fill="#3C2415" d="M582.3,459.1c-4.4,0-8.8-3.1-9.4-3.5c-7-4.6-11.5-18.3-13.5-26.1c-0.5-2.1-0.9-4.1-1-5.9
					c-0.5-6.4,0.7-10.3,3.8-12.1c4.6-2.5,10.6,1.7,11.2,2.2c16.1,13.2,16.9,33.1,16.9,33.9c0,0,0,0,0,0.1c0,5.5-1.5,9.1-4.6,10.7
					C584.7,458.8,583.5,459.1,582.3,459.1z M565.5,415.3c-0.4,0-0.7,0.1-1,0.2c-1.2,0.7-1.8,3.6-1.5,7.7c0.1,1.6,0.4,3.3,0.9,5.1
					c3.2,11.9,7.5,20.7,11.7,23.4c1.8,1.3,6,3.5,8.1,2.4c1.3-0.7,2.1-3,2.1-6.5c0-0.8-1-18.8-15.1-30.4
					C569.4,416.4,567.1,415.3,565.5,415.3z"/>
			</g>
			<path fill="#3C2415" d="M579,414c-0.7,0-1.4-0.1-2-0.4c-3-1.3-4.4-5.3-4.1-12.3c0-0.9,0.7-1.6,1.6-1.5c0.9,0,1.5,0.7,1.5,1.6
				c-0.2,5.3,0.6,8.7,2.3,9.4c2.2,0.9,6.3-2.3,8-4.1c0.6-0.6,1.6-0.6,2.2,0c0.6,0.6,0.6,1.6,0,2.2C587.8,409.5,583.2,414,579,414z"
				/>
			<path fill="#3C2415" d="M545.1,294.7c-1.9,0-4.2-0.4-6.9-1.2c-0.8-0.2-1.3-1.1-1-1.9c0.2-0.8,1.1-1.3,1.9-1
				c4.9,1.5,8.2,1.4,9.6-0.1c1.9-2.2,0.2-7.3-0.5-8.9c-0.3-0.8,0-1.7,0.8-2c0.8-0.3,1.7,0,2,0.8c0.4,0.8,3.5,8.2,0,12.2
				C549.8,294,547.8,294.7,545.1,294.7z"/>
			<circle fill="#EF4136" cx="597.1" cy="292.2" r="9.1"/>
			<circle fill="#3C2415" cx="583.9" cy="279.6" r="10.6"/>
			<g>
				<path fill="#D7B07F" d="M691.2,334.3c-2.3,27.5-26.6,25.8-26.6,25.8c1.2,4.4,2.1,8.6,2.7,12.5c9.6,65.1-62.1,65.9-62.1,65.9
					c4.4-19.4-13-50.2-13-50.2c18.1,1.8,4-15.3,4-15.3c12.3-6-5.1-17.5-5.1-17.5c14.4-2.1,24.5-6.4,31.5-11.7
					c21.6-16.4,13.9-42.5,13.9-42.5c20.6-10.3,35.2-1.7,35.2-1.7C693.6,309,691.2,334.3,691.2,334.3z"/>
				<path fill="#3C2415" d="M605.2,440.7c-0.7,0-1.4-0.3-1.8-0.9c-0.4-0.5-0.6-1.3-0.5-2c4.1-18.3-12.6-48.3-12.8-48.6
					c-0.4-0.8-0.4-1.7,0.1-2.4c0.5-0.7,1.3-1.1,2.2-1c3.5,0.3,5.9-0.1,6.5-1.1c1-1.9-1.9-7.3-4.5-10.4c-0.4-0.5-0.6-1.3-0.5-2
					c0.1-0.7,0.6-1.3,1.2-1.6c2-1,3-2.1,3.1-3.3c0.2-3.3-5.6-8.3-8.5-10.2c-0.8-0.5-1.2-1.5-1-2.4c0.2-0.9,1-1.6,1.9-1.8
					c12.7-1.8,23-5.6,30.4-11.2c20.1-15.2,13.3-39,13-40c-0.3-1.1,0.2-2.2,1.2-2.7c21.5-10.7,36.8-2,37.4-1.6
					c22.7,9.8,20.8,36.1,20.8,36.9l0,0c-2,23.3-18.8,27.2-25.9,27.8c0.8,3.3,1.5,6.6,2,9.9c2.8,18.9-0.8,34.5-10.8,46.1
					C640.2,440.1,606.7,440.7,605.2,440.7C605.3,440.7,605.2,440.7,605.2,440.7z M596.1,390.6c4.2,8.3,13.8,29.3,11.9,45.4
					c8.3-0.6,33.1-4,47.3-20.7c9.1-10.6,12.3-24.9,9.7-42.4c-0.6-4.1-1.5-8.2-2.6-12.2c-0.2-0.7,0-1.5,0.4-2.1
					c0.5-0.6,1.2-0.9,2-0.8c0.9,0.1,22,1.2,24.1-23.7c0,0,0,0,0,0c0.1-1,1.9-23.7-18.2-32.4c-0.8-0.4-13.3-7.5-31.6,0.8
					c1.3,6.6,4,28.5-15.1,43.1c-7,5.3-16.2,9.1-27.3,11.2c3.1,2.7,6.5,6.8,6.3,11c-0.1,1.6-0.8,3.8-3.3,5.7
					c2.3,3.3,5.6,9.2,3.4,13.4C601.9,389.1,599.6,390.3,596.1,390.6z"/>
			</g>
			<g>
				<path fill="#F5EAB1" d="M691.2,334.3c-2.3,27.5-26.6,25.8-26.6,25.8c1.2,4.4,2.1,8.6,2.7,12.5c-11.9,5.3-13.9-4.2-13.9-4.2
					c-1.2-7.8-8.3-4.6-8.3-4.6c-8.1,4.2-9.1-3.8-9.1-3.8c-0.3-6.6-7.4-5.9-7.4-5.9c-11-0.8-6.1-10.3-6.1-10.3
					c21.6-16.4,13.9-42.5,13.9-42.5c20.6-10.3,35.2-1.7,35.2-1.7C693.6,309,691.2,334.3,691.2,334.3z"/>
				<path fill="#3C2415" d="M660.9,375.7c-1.6,0-3-0.3-4.3-1c-3.7-1.9-4.7-5.9-4.7-6c-0.3-1.9-0.9-3.1-2-3.6
					c-1.7-0.9-4.2,0.1-4.2,0.1c-2.9,1.5-5.5,1.8-7.6,0.7c-3.1-1.6-3.6-5.5-3.6-5.7c-0.1-1.6-0.5-2.6-1.3-3.3
					c-1.6-1.4-4.3-1.2-4.4-1.2c-4.1-0.3-6.7-1.6-8-3.9c-2.1-3.7,0.3-8.5,0.4-8.7c0.1-0.2,0.3-0.4,0.4-0.5
					c20.5-15.6,13.6-39.8,13.3-40.9c-0.2-0.7,0.1-1.5,0.8-1.8c21.2-10.5,36-2,36.7-1.6c22.3,9.6,20.4,35.5,20.4,36.2l0,0
					c-2,23.8-19.9,26.8-26.1,27.2c0.9,3.5,1.6,7.1,2.2,10.7c0.1,0.7-0.3,1.4-0.9,1.6C665.4,375.1,663,375.7,660.9,375.7z
					 M654.9,368.1c0,0,0.7,2.7,3.1,3.9c1.9,0.9,4.5,0.8,7.6-0.4c-0.6-3.7-1.5-7.5-2.5-11.1c-0.1-0.5,0-1,0.3-1.4
					c0.3-0.4,0.8-0.6,1.3-0.6c0.9,0.1,22.8,1.2,25-24.4c0,0,0,0,0,0c0.1-1,1.9-24.3-18.7-33.1c-0.3-0.2-13.8-7.8-32.8,1.1
					c1.2,5.6,4.7,27.9-14.4,42.7c-0.5,1.2-1.3,3.8-0.3,5.5c0.8,1.3,2.5,2.1,5.3,2.3c-0.1,0,3.8-0.4,6.4,1.9c1.5,1.3,2.3,3.1,2.4,5.4
					l0,0c0,0,0.4,2.4,2,3.2c1.4,0.7,3.4,0,4.8-0.8c0.2-0.1,3.9-1.7,7,0C653.3,363.4,654.5,365.3,654.9,368.1
					C654.9,368.1,654.9,368.1,654.9,368.1z"/>
			</g>
		</g>
		<g>
			<g>
				<path fill="#FAC8C9" d="M1278.8,842.4c-38,19-55.7,18.7-74.7,18.7s-36.7,0.3-74.7-18.7c-36.4-18.1-58.1-58.3-54.1-101
					c2.1-22,9.7-47.1,29.6-68.8c0,0,27.4-36,78.5-41.5c6.5-0.7,13.4-0.9,20.7-0.5c1-0.1,2-0.1,2.9-0.1c62.5-2.2,96.2,42.1,96.2,42.1
					c19.9,21.8,27.5,46.8,29.6,68.8C1336.9,784.1,1315.2,824.3,1278.8,842.4z"/>
				<path fill="#3C2415" d="M1205.9,863.4c-0.3,0-0.6,0-0.9,0h-1.7c-19-0.1-37,0-74.8-18.9c-37.2-18.5-59.4-60-55.3-103.2
					c2.6-27.5,12.8-51.1,30.2-70.2c1-1.3,28.4-36.7,80-42.2c6.7-0.8,13.8-0.9,21-0.5c0.7-0.1,1.8-0.1,2.8-0.1
					c62.9-2.3,97.7,42.6,98.1,43c17.3,18.9,27.4,42.5,30,70c4.1,43.2-18.1,84.7-55.3,103.2C1242.6,863.1,1224.6,863.4,1205.9,863.4z
					 M1204.2,858.7h0.9c0.3,0,0.6,0,0.8,0c18.1,0,35.6-0.3,71.9-18.4c0,0,0,0,0,0c35.5-17.7,56.7-57.3,52.8-98.7
					c-2.5-26.5-12.3-49.2-29-67.5c-0.5-0.6-34.1-43.6-94.4-41.4c-1,0-1.9,0-2.8,0.1c-7.3-0.4-14.2-0.2-20.6,0.5
					c-49.6,5.3-76.7,40.2-76.9,40.6c-16.8,18.5-26.6,41.2-29.1,67.7c-3.9,41.3,17.3,81,52.8,98.7c36.3,18.2,53.8,18.4,71.9,18.4
					c0.3,0,0.6,0,0.8,0H1204.2z"/>
			</g>
			<g>
				<path fill="#FAC8C9" d="M1129.5,842.4c-8.2-4.1-15.5-9.3-22.1-15.4c-10.3,12-41.7,52.2,29.1,18.6
					C1134.2,844.6,1131.9,843.6,1129.5,842.4z"/>
				<path fill="#3C2415" d="M1098,861.1c-4.2,0-6.2-1.4-7.4-3c-4-5.3,1-16.2,15.1-32.6c0.4-0.5,1-0.8,1.6-0.8
					c0.6-0.1,1.2,0.2,1.7,0.6c6.6,6.1,13.9,11.2,21.5,15c2.2,1.1,4.5,2.2,6.9,3.2c0.8,0.4,1.4,1.2,1.4,2.1c0,0.9-0.5,1.7-1.3,2.1
					C1116,857.9,1104.5,861.1,1098,861.1z M1107.7,830.3c-11.6,13.9-15.1,22.7-13.4,25c1,1.3,6.5,4.2,36.7-9.7
					c-0.8-0.4-1.7-0.8-2.5-1.2l0,0C1121.1,840.8,1114.1,836,1107.7,830.3z"/>
			</g>
			<g>
				<path fill="#FAC8C9" d="M1172,632.9c-7,1.5-13.5,3.5-19.4,5.8c-23.9,9.4-39.1,24.4-44.9,30.8c-1.8,2-2.7,3.1-2.7,3.1
					c-6.5,7.1-11.7,14.6-15.8,22.2c-3.3-13.6-14.3-54.4,6.6-93.6C1095.8,601.1,1139.2,598.7,1172,632.9z"/>
				<path fill="#3C2415" d="M1089.2,697.1c-0.1,0-0.2,0-0.3,0c-1-0.1-1.7-0.8-2-1.8l-0.4-1.6c-3.6-15.1-13.3-55.1,7.2-93.6
					c0.4-0.7,1.1-1.2,1.9-1.2c1.8-0.1,44.9-2.1,78,32.5c0.6,0.6,0.8,1.5,0.5,2.3c-0.2,0.8-0.9,1.4-1.7,1.6c-6.4,1.3-12.8,3.2-19,5.7
					c-23.6,9.3-38.7,24.2-44.1,30.2c-1.7,1.9-2.6,3-2.6,3c-6.2,6.7-11.4,14-15.5,21.9C1090.9,696.6,1090.1,697.1,1089.2,697.1z
					 M1097.2,603.4c-17.3,33.6-11,68.5-7.1,85.1c3.8-6.2,8.2-12.1,13.2-17.5c0,0,0.9-1.2,2.7-3.1c5.6-6.2,21.3-21.7,45.8-31.4
					c5.2-2,10.4-3.7,15.6-5C1139.3,604.6,1104.4,603.5,1097.2,603.4z"/>
			</g>
			<path fill="#3C2415" d="M1152.6,638.7c-23.9,9.4-39.1,24.4-44.9,30.8c-3.6-8.9-7.8-26-1.4-48.7
				C1106.3,620.8,1135.1,619.1,1152.6,638.7z"/>
			<ellipse fill="#3C2415" cx="1147.8" cy="749.4" rx="11.8" ry="12.6"/>
			<ellipse fill="#EF4136" cx="1120.6" cy="764.1" rx="14.1" ry="7.7"/>
			<path fill="#3C2415" d="M1193.7,749.5c-10.6,0-16.3-9.3-16.4-9.4c-0.7-1.1-0.3-2.5,0.8-3.2c1.1-0.7,2.5-0.3,3.2,0.8
				c0.3,0.5,7.8,12.4,21.8,4.3c1.1-0.6,2.5-0.3,3.2,0.8s0.3,2.5-0.8,3.2C1201,748.6,1197.1,749.5,1193.7,749.5z"/>
			<path fill="#3C2415" d="M1153.9,815.7c-8.1,0-22.2-11.4-28.6-17c-1-0.8-1.1-2.3-0.2-3.3c0.8-1,2.3-1.1,3.3-0.2
				c11.5,10,24,17.5,26.2,15.8c0.1-0.1,3.2-2.9-8.8-25.8c-0.6-1.1-0.2-2.5,1-3.1c1.1-0.6,2.5-0.2,3.1,1c9.8,18.6,12,28.1,7.6,31.6
				C1156.5,815.4,1155.3,815.7,1153.9,815.7z"/>
			<g>
				<path fill="#0BA24A" d="M1151.1,790.8l8.5-4.3l4.5,13.1l-8.2,3.1C1155.9,802.6,1152.6,793.7,1151.1,790.8z"/>
				<path fill="#3C2415" d="M1155.9,804.9c-0.3,0-0.7-0.1-1-0.2c-0.6-0.3-1-0.7-1.2-1.3c0-0.1-3.3-8.9-4.6-11.6
					c-0.6-1.1-0.1-2.5,1-3.1l8.5-4.3c0.6-0.3,1.3-0.3,1.9-0.1c0.6,0.3,1.1,0.8,1.3,1.4l4.5,13.1c0.4,1.2-0.2,2.5-1.4,2.9l-8.2,3.1
					C1156.4,804.9,1156.2,804.9,1155.9,804.9z M1154.1,791.8c1,2.4,2.3,5.7,3.1,7.8l3.9-1.5l-2.9-8.4L1154.1,791.8z"/>
			</g>
			<g>
				<path fill="#0BA24A" d="M1174.5,771.8c-7.9,0-14.2,6.4-15,14.6l0.1,0.1l4.5,13.1c2.7,2.8,6.4,4.5,10.4,4.5
					c8.3,0,15.1-7.2,15.1-16.1C1189.6,779,1182.8,771.8,1174.5,771.8z"/>
				<path fill="#3C2415" d="M1174.5,806.4c-4.5,0-8.8-1.8-12.1-5.2c-0.2-0.2-0.4-0.5-0.5-0.9l-4.4-12.8c-0.2-0.4-0.3-0.8-0.3-1.3
					c0.8-9.5,8.3-16.7,17.3-16.7c9.6,0,17.4,8.3,17.4,18.4C1191.9,798.1,1184.1,806.4,1174.5,806.4z M1166.1,798.3
					c2.3,2.2,5.3,3.4,8.4,3.4c7,0,12.8-6.2,12.8-13.8c0-7.6-5.7-13.8-12.8-13.8c-6.4,0-11.7,5.1-12.6,11.9L1166.1,798.3z"/>
			</g>
			<g>
				<path fill="#FAC8C9" d="M1278.8,842.4c8.2-4.1,15.5-9.3,22.1-15.4c10.3,12,41.7,52.2-29.1,18.6
					C1274.1,844.6,1276.5,843.6,1278.8,842.4z"/>
				<path fill="#3C2415" d="M1310.3,861.1c-6.4,0-17.9-3.2-39.5-13.4c-0.8-0.4-1.3-1.2-1.3-2.1c0-0.9,0.6-1.7,1.4-2.1
					c2.3-1,4.7-2.1,6.9-3.2l0,0c7.7-3.8,14.9-8.9,21.5-15c0.5-0.4,1.1-0.6,1.7-0.6c0.6,0,1.2,0.3,1.6,0.8
					c14,16.4,19.1,27.3,15.1,32.6C1316.5,859.7,1314.5,861.1,1310.3,861.1z M1277.4,845.7c30.2,13.8,35.7,10.9,36.7,9.7
					c1.7-2.3-1.8-11-13.4-25c-6.4,5.7-13.4,10.4-20.8,14.1l0,0C1279,844.9,1278.2,845.3,1277.4,845.7z M1278.8,842.4L1278.8,842.4
					L1278.8,842.4z"/>
			</g>
			<g>
				<path fill="#FAC8C9" d="M1236.3,632.9c7,1.5,13.5,3.5,19.4,5.8c23.9,9.4,39.1,24.4,44.9,30.8c1.8,2,2.7,3.1,2.7,3.1
					c6.5,7.1,11.7,14.6,15.8,22.2c3.3-13.6,14.3-49.7-6.6-93.6C1312.5,601.1,1269.1,598.7,1236.3,632.9z"/>
				<path fill="#3C2415" d="M1319.1,697.1c-0.8,0-1.6-0.5-2-1.2c-4.2-7.8-9.4-15.1-15.4-21.7c-0.1-0.2-1-1.3-2.7-3.2
					c-5.4-6-20.5-20.9-44.1-30.2c-6.3-2.4-12.7-4.4-19-5.7c-0.8-0.2-1.5-0.8-1.7-1.6c-0.2-0.8,0-1.7,0.5-2.3
					c33.2-34.6,76.2-32.6,78-32.5c0.8,0,1.6,0.6,2,1.3c19.9,42,11.2,77.3,7.4,92.4l-0.7,2.7c-0.2,0.9-1,1.6-2,1.8
					C1319.3,697.1,1319.2,697.1,1319.1,697.1z M1240.9,631.5c5.2,1.3,10.5,3,15.6,5c24.5,9.6,40.2,25.2,45.8,31.4
					c1.9,2.1,2.8,3.3,2.8,3.3c4.9,5.3,9.3,11.2,13.1,17.4c3.8-15.7,10.1-47.7-7.2-85.2c-0.1,0-0.2,0-0.2,0
					C1303.1,603.4,1268.6,605,1240.9,631.5z"/>
			</g>
			<path fill="#3C2415" d="M1255.7,638.7c23.9,9.4,39.1,24.4,44.9,30.8c3.6-8.9,7.8-26,1.4-48.7
				C1302,620.8,1273.3,619.1,1255.7,638.7z"/>
			<ellipse fill="#3C2415" cx="1260.5" cy="749.4" rx="11.8" ry="12.6"/>
			<ellipse fill="#EF4136" cx="1287.7" cy="764.1" rx="14.1" ry="7.7"/>
			<path fill="#3C2415" d="M1214.6,749.5c-3.4,0-7.3-1-11.6-3.5c-1.1-0.6-1.5-2.1-0.8-3.2s2-1.5,3.2-0.8c13.9,8.1,21.5-3.8,21.8-4.3
				c0.7-1.1,2.1-1.4,3.2-0.8c1.1,0.7,1.4,2.1,0.8,3.2C1231,740.3,1225.2,749.5,1214.6,749.5z"/>
			<g>
				<path fill="#FFE19B" d="M1204.2,743.1c0,0-7.4,6.1-17.3,2.8c0,0,6.3,32.7,17.3,30.1c10.9,2.6,17.3-30.1,17.3-30.1
					C1211.6,749.1,1204.2,743.1,1204.2,743.1z"/>
				<path fill="#3C2415" d="M1205.4,778.4c-0.4,0-0.8,0-1.2-0.1c-1.9,0.3-3.9-0.1-5.7-1.3c-8.8-5.7-13.3-28.2-13.8-30.7
					c-0.2-0.8,0.1-1.6,0.7-2.2c0.6-0.5,1.5-0.7,2.3-0.5c8.5,2.8,15-2.3,15.1-2.4c0.8-0.7,2.1-0.7,2.9,0c0.3,0.2,6.6,5.2,15.1,2.4
					c0.8-0.3,1.6-0.1,2.3,0.5c0.6,0.5,0.9,1.4,0.7,2.2c-0.5,2.5-5.1,25.1-13.8,30.7C1208.4,778,1206.9,778.4,1205.4,778.4z
					 M1204.2,773.7c0.2,0,0.4,0,0.5,0.1c0.9,0.2,1.7,0,2.6-0.6c5.1-3.3,9.2-16.4,11-24.2c-6.6,0.9-11.8-1.6-14.2-3.1
					c-2.4,1.5-7.6,4-14.2,3.1c1.9,7.8,5.9,20.9,11,24.2c0.9,0.6,1.8,0.8,2.6,0.6C1203.8,773.7,1204,773.7,1204.2,773.7z
					 M1204.2,743.1L1204.2,743.1L1204.2,743.1z"/>
			</g>
			<path fill="#3C2415" d="M1254.4,815.7c-1.4,0-2.6-0.3-3.6-1.1c-4.4-3.5-2.2-12.9,7.6-31.6c0.6-1.1,2-1.6,3.1-1
				c1.1,0.6,1.6,2,1,3.1c-12,22.9-9,25.7-8.8,25.8c2.3,1.8,14.8-5.7,26.2-15.8c1-0.8,2.4-0.7,3.3,0.2c0.8,1,0.7,2.4-0.2,3.3
				C1276.6,804.3,1262.5,815.7,1254.4,815.7z"/>
			<g>
				<path fill="#FAC8C9" d="M1211.7,693.7c-34.8,9.6-40-20.4-40-20.4c-3.1-19.3,3.5-33,11.8-42.2c6.5-0.7,13.4-0.9,20.7-0.5
					c1-0.1,2-0.1,2.9-0.1c-1.7,8.3,2.6,17.5,11.5,20.3c0.1,0,0.1,0,0.2,0.1c5,1.7,8.4,6.8,9.1,12.4
					C1229.8,679.6,1221.4,691,1211.7,693.7z"/>
				<path fill="#3C2415" d="M1198.9,697.9c-6.2,0-11.6-1.5-16.2-4.4c-10.9-6.9-13.1-19.3-13.2-19.8c-2.8-17.1,1.4-32,12.4-44.1
					c0.4-0.4,0.9-0.7,1.5-0.7c6.7-0.8,13.8-0.9,21.1-0.5c0.7-0.1,1.8-0.1,2.8-0.1c0.7,0,1.4,0.3,1.8,0.9c0.4,0.5,0.6,1.3,0.5,1.9
					c-1.4,6.7,1.9,15.1,9.9,17.6c0.1,0,0.2,0.1,0.3,0.1c5.6,1.9,9.8,7.6,10.6,14.3c2.1,17.8-7.5,30-17.9,32.9l0,0
					C1207.5,697.2,1203,697.9,1198.9,697.9z M1211.7,693.7L1211.7,693.7L1211.7,693.7z M1184.6,633.3c-9.6,11-13.2,24.3-10.7,39.6
					c0,0.1,2,10.9,11.2,16.7c6.6,4.1,15.3,4.8,25.9,1.8l0,0c8.6-2.4,16.3-12.7,14.6-27.9c-0.6-5-3.5-9.2-7.5-10.5l0,0
					c-0.1,0-0.1,0-0.2-0.1c-8.5-2.7-14-11.2-13.5-20.1c0,0-0.1,0-0.1,0C1197.3,632.5,1190.8,632.6,1184.6,633.3z"/>
			</g>
		</g>
		<g>
			<g>
				<path fill="#71B07B" d="M204.6,553.5l-7.9-5.7l-7.9,5.7c-224.6,165-105.6,238.4-70,255.1v0c5.4,2.5,8.9,3.8,8.9,3.8l69,16.6
					l69-16.6c0,0,3.5-1.2,8.9-3.8v0C310.3,791.9,429.3,718.4,204.6,553.5z"/>
				<path fill="#3C2415" d="M196.7,831.2c-0.2,0-0.4,0-0.5-0.1l-69-16.6c-0.4-0.1-3.9-1.4-9.4-3.9c-0.1,0-0.2-0.1-0.3-0.2
					c-18-8.5-59.6-32.7-64.1-77.3c-5.1-51.5,40-112.6,134-181.6l8-5.7c0.8-0.6,1.9-0.6,2.7,0l7.9,5.7c0,0,0,0,0,0
					c94,69,139.1,130.1,134,181.6c-4.4,44.6-46,68.8-64.1,77.3c-0.1,0.1-0.2,0.1-0.3,0.2c-5.5,2.5-9,3.8-9.2,3.8l-69.2,16.7
					C197,831.2,196.9,831.2,196.7,831.2z M120,806.6c5.1,2.3,8.4,3.5,8.4,3.5l68.3,16.4l68.5-16.5l0,0c0,0,3.3-1.2,8.2-3.5
					c0.1-0.1,0.2-0.1,0.3-0.2c17.2-8,57.5-31.2,61.7-73.7c4.9-49.7-39.5-109.4-132.1-177.4l-6.6-4.7l-6.6,4.7
					C97.5,623.3,53.1,683,58,732.7c4.2,42.5,44.6,65.7,61.7,73.7C119.8,806.5,119.9,806.5,120,806.6z"/>
			</g>
			<g>
				<path fill="#71B07B" d="M118.7,808.5c-35.6-16.6-154.6-90.1,70-255.1l7.9-5.7C196.7,547.8,72.7,685.4,118.7,808.5z"/>
				<path fill="#3C2415" d="M118.7,810.8c-0.3,0-0.7-0.1-1-0.2c-17.9-8.3-59.9-32.6-64.4-77.4c-5.1-51.5,40-112.6,134-181.6l8-5.7
					c1-0.7,2.3-0.5,3.1,0.3c0.8,0.9,0.8,2.2,0,3.1c-1.2,1.4-122.5,138-77.5,258.3c0.3,0.9,0.1,1.9-0.6,2.5
					C119.8,810.6,119.3,810.8,118.7,810.8z M183.6,560.2c-88.2,66-130.4,124-125.6,172.6c3.8,38.7,37.7,61.4,56.7,71.2
					C81.7,705.1,154.5,597.7,183.6,560.2z"/>
			</g>
			<g>
				<path fill="#71B07B" d="M274.7,808.5c35.6-16.6,154.6-90.1-70-255.1l-7.9-5.7C196.7,547.8,320.7,685.4,274.7,808.5z"/>
				<path fill="#3C2415" d="M274.7,810.8c-0.6,0-1.1-0.2-1.6-0.6c-0.7-0.6-0.9-1.6-0.6-2.5c45-120.4-76.3-257-77.5-258.3
					c-0.8-0.9-0.8-2.2,0-3.1c0.8-0.9,2.1-1,3.1-0.3l7.9,5.7c94,69,139.1,130.1,134,181.6c-4.4,44.9-46.5,69.1-64.4,77.4
					C275.3,810.8,275,810.8,274.7,810.8z M209.8,560.2c29.1,37.6,101.9,145,69,243.8c19-9.8,52.8-32.5,56.7-71.2
					C340.2,684.2,297.9,626.1,209.8,560.2z"/>
			</g>
			<g>
				<path fill="#C0D9AC" d="M274.6,796.8c-32.5,13.7-77.9,10.7-77.9,10.7s-45.5,3-77.9-10.7c0,0-0.9,11.1,0.3,24.1
					c0.3,3.2,0.7,6.6,1.4,10c2.7,14.9,9.2,29.3,23.5,30.2c0,0,10.2,1.3,15.8-15.8c0,0,14.8,3.1,37,2.7c22.2,0.4,37-2.7,37-2.7
					c5.6,17.1,15.8,15.8,15.8,15.8c14.4-0.9,20.8-15.3,23.5-30.2c0.6-3.4,1-6.7,1.4-10C275.5,807.9,274.6,796.8,274.6,796.8z"/>
				<path fill="#3C2415" d="M248.9,863.4c-2.6,0-11.4-1.1-16.8-15.5c-4.8,0.8-17.7,2.7-35.5,2.4c-17.7,0.3-30.6-1.5-35.4-2.4
					c-6.2,16.7-17.2,15.5-17.6,15.5c-12.9-0.8-21.8-11.9-25.5-32.1c-0.6-3.1-1-6.5-1.4-10.2c-1.2-13-0.3-24-0.3-24.5
					c0.1-0.7,0.5-1.4,1.1-1.8c0.6-0.4,1.4-0.4,2.1-0.2c31.6,13.3,76.4,10.5,76.9,10.5c0.8,0,45.6,2.8,77.2-10.5
					c0.7-0.3,1.5-0.2,2.1,0.2c0.6,0.4,1,1,1.1,1.8c0,0.5,0.9,11.4-0.3,24.5c-0.3,3.6-0.8,7.1-1.4,10.2
					c-3.7,20.2-12.6,31.2-25.6,32.1C249.6,863.3,249.3,863.4,248.9,863.4z M233.7,842.9c1,0,1.9,0.6,2.2,1.6
					c4.8,14.9,13,14.3,13.3,14.2c11-0.7,18.2-10.2,21.5-28.3c0.5-3,1-6.3,1.3-9.8c0.8-8.6,0.6-16.4,0.5-20.5
					c-32.3,12.4-74.1,9.8-76,9.7c-1.5,0.1-43.4,2.7-75.7-9.7c-0.2,4.2-0.3,12,0.5,20.5c0.3,3.5,0.8,6.8,1.3,9.8
					c3.3,18.1,10.5,27.6,21.4,28.3c0.5,0,8.6,0.7,13.5-14.2c0.4-1.1,1.5-1.8,2.7-1.5c0.1,0,14.9,3,36.5,2.6
					c21.7,0.4,36.4-2.6,36.6-2.6C233.4,842.9,233.5,842.9,233.7,842.9z"/>
			</g>
			<g>
				<path fill="#C0D9AC" d="M316.1,701.1c0,0-27.7-90.6-119.4-86.5c-91.7-4.1-119.4,86.5-119.4,86.5
					C37.2,817.5,196.7,807.5,196.7,807.5S356.2,817.5,316.1,701.1z"/>
				<path fill="#3C2415" d="M186.6,810c-23.2,0-80.7-3.5-106.1-36.8c-14-18.3-15.8-42.8-5.5-72.8c0.3-0.8,29.3-92.2,121.7-88.1
					c91.4-4,120.7,85.6,121.5,88.1c10.3,30,8.5,54.5-5.5,72.8c-13.1,17.2-37.4,29-70.3,34c-24.6,3.8-45.8,2.5-46,2.5
					C195.9,809.8,192.3,810,186.6,810z M196.5,805.1c1.1,0,82.6,4.7,112.6-34.8c13-17,14.6-40.1,4.8-68.5c0,0,0,0,0-0.1
					c-0.3-0.9-28.2-88.8-117.1-84.9c-89-4-117,84-117.3,84.9c-9.8,28.5-8.2,51.5,4.8,68.6C114.3,809.8,195.7,805.2,196.5,805.1z"/>
			</g>
			<g>
				<path fill="#C0D9AC" d="M155.1,620c-23-11.2-48.5-12.4-62.5-12c-6.7,0.2-12.4,5.1-13.3,11.8c-3,21,1.5,49.6,4.6,65.6
					C93.6,665.6,115.2,632.9,155.1,620z"/>
				<path fill="#3C2415" d="M83.9,687.7c-0.1,0-0.2,0-0.3,0c-1-0.1-1.8-0.9-2-1.8c-3.1-15.6-7.7-44.9-4.6-66.4
					c1.1-7.8,7.7-13.5,15.6-13.8c13.5-0.4,39.8,0.7,63.6,12.2c0.8,0.4,1.4,1.3,1.3,2.2c-0.1,0.9-0.7,1.7-1.6,2
					c-39.5,12.8-60.7,45.7-69.9,64.2C85.6,687.2,84.7,687.7,83.9,687.7z M97,610.2c-1.5,0-3,0-4.3,0.1c-5.6,0.2-10.3,4.3-11.1,9.8
					c-2.6,18.1,0.5,42.3,3.4,58.3c10.3-18.6,30.2-45.7,64-58.6C129.8,611.8,109.7,610.2,97,610.2z"/>
			</g>
			<circle fill="#3C2415" cx="122.1" cy="722.8" r="11.7"/>
			<ellipse fill="#EF4136" cx="97" cy="737.2" rx="11.3" ry="5.2"/>
			<g>
				<ellipse fill="#92CD8C" cx="153.4" cy="677.7" rx="9.1" ry="5.1"/>
				<path fill="#3C2415" d="M153.4,684.4c-6,0-10.7-2.9-10.7-6.6c0-3.7,4.7-6.6,10.7-6.6c6,0,10.7,2.9,10.7,6.6
					C164.1,681.5,159.4,684.4,153.4,684.4z M153.4,674.2c-4.4,0-7.6,1.9-7.6,3.6c0,1.7,3.3,3.6,7.6,3.6s7.6-1.9,7.6-3.6
					C161.1,676.1,157.8,674.2,153.4,674.2z"/>
			</g>
			<g>
				<path fill="#92CD8C" d="M148.3,822.5l-1.3,9.7c-0.8,6.1-7.8,9.4-12.9,5.9c-0.1-0.1-0.2-0.1-0.2-0.2l-13.5-7.1
					c-0.6-3.4-1-6.7-1.4-10c2.6-2.9,7.2-7.1,12.8-7.2C131.8,813.6,149.4,812.2,148.3,822.5z"/>
				<path fill="#3C2415" d="M138.7,841c-1.9,0-3.8-0.6-5.4-1.7l-13.6-7.1c-0.4-0.2-0.7-0.6-0.8-1.1c-0.6-3.1-1-6.5-1.4-10.1
					c0-0.4,0.1-0.8,0.4-1.2c2.5-2.8,7.6-7.6,13.9-7.7c0.4,0,11.2-0.8,15.9,4c1.7,1.7,2.4,4,2.1,6.6c0,0,0,0,0,0l-1.3,9.7
					c-0.5,3.5-2.6,6.4-5.8,7.8C141.4,840.7,140,841,138.7,841z M121.8,829.8l12.9,6.7c0.3,0.2,0.5,0.3,0.6,0.5
					c1.7,1.1,4,1.3,6.2,0.4c2.2-1,3.7-3,4-5.4l1.3-9.7c0.2-1.7-0.2-3-1.3-4.1c-3.1-3.1-10.8-3.3-13.5-3.1c-4.9,0.1-9.1,3.7-11.3,6.2
					C120.9,824.4,121.3,827.2,121.8,829.8z M148.3,822.5L148.3,822.5L148.3,822.5z"/>
			</g>
			<g>
				<path fill="#C0D9AC" d="M238.3,620c23-11.2,48.5-12.4,62.5-12c6.7,0.2,12.4,5.1,13.3,11.8c3,21-1.5,49.6-4.6,65.6
					C299.7,665.6,278.1,632.9,238.3,620z"/>
				<path fill="#3C2415" d="M309.5,687.7c-0.9,0-1.7-0.5-2.1-1.3c-9.1-18.5-30.4-51.4-69.9-64.2c-0.9-0.3-1.5-1.1-1.6-2
					c-0.1-0.9,0.4-1.8,1.3-2.2c23.7-11.5,50-12.6,63.6-12.2c7.9,0.2,14.4,6,15.6,13.8c3.1,21.5-1.6,50.8-4.6,66.4
					c-0.2,1-1,1.7-2,1.8C309.7,687.6,309.6,687.7,309.5,687.7z M244.5,619.7c33.8,13,53.7,40,64,58.6c2.8-16,6-40.1,3.4-58.3
					c-0.8-5.5-5.5-9.6-11.1-9.8C288.6,609.9,265.9,610.8,244.5,619.7z"/>
			</g>
			<circle fill="#3C2415" cx="271.3" cy="722.8" r="11.7"/>
			<ellipse fill="#EF4136" cx="296.4" cy="737.2" rx="11.3" ry="5.2"/>
			<g>
				<path fill="#92CD8C" d="M213.7,639c-10.3-6.8-23.8-6.8-34.1,0c-7.4,4.9-14.2,12.2-13.4,22.1c0,0,0.8,14.8,24.7,19.8
					c3.8,0.8,7.7,0.8,11.5,0c23.8-5,24.7-19.8,24.7-19.8C227.9,651.2,221.1,643.9,213.7,639z"/>
				<path fill="#3C2415" d="M196.7,683.1c-2,0-4.1-0.2-6.1-0.6c-24.7-5.2-25.9-20.6-25.9-21.3c-0.7-8.7,4.1-16.8,14.1-23.4
					c10.9-7.2,24.9-7.2,35.8,0l0,0c9.9,6.6,14.8,14.7,14.1,23.5c0,0.6-1.2,16-25.9,21.2C200.8,682.8,198.7,683.1,196.7,683.1z
					 M196.7,635.4c-5.6,0-11.3,1.6-16.2,4.9c-9.1,6-13.4,13-12.7,20.7c0,0.6,1.2,13.8,23.5,18.5c3.6,0.7,7.3,0.7,10.9,0
					c22.3-4.7,23.4-17.9,23.5-18.4c0.6-7.7-3.6-14.7-12.7-20.7l0,0C207.9,637,202.3,635.4,196.7,635.4z"/>
			</g>
			<g>
				<ellipse fill="#92CD8C" cx="239.9" cy="677.7" rx="9.1" ry="5.1"/>
				<path fill="#3C2415" d="M239.9,684.4c-6,0-10.7-2.9-10.7-6.6c0-3.7,4.7-6.6,10.7-6.6c6,0,10.7,2.9,10.7,6.6
					C250.6,681.5,245.9,684.4,239.9,684.4z M239.9,674.2c-4.4,0-7.6,1.9-7.6,3.6c0,1.7,3.3,3.6,7.6,3.6c4.4,0,7.6-1.9,7.6-3.6
					C247.5,676.1,244.3,674.2,239.9,674.2z"/>
			</g>
			<path fill="#3C2415" d="M196.7,735.8c-8.5,9.9-31.6,5.4-31.6,5.4c8.1,15.9,23.1,15.3,31.6,15.3c8.5,0,23.5,0.6,31.6-15.3
				C228.3,741.2,205.2,745.7,196.7,735.8z"/>
			<g>
				<path fill="#92CD8C" d="M245.1,822.5l1.3,9.7c0.8,6.1,7.8,9.4,12.9,5.9c0.1-0.1,0.2-0.1,0.2-0.2l13.5-7.1c0.6-3.4,1-6.7,1.4-10
					c-2.6-2.9-7.2-7.1-12.8-7.2C261.5,813.6,243.9,812.2,245.1,822.5z"/>
				<path fill="#3C2415" d="M254.6,841c-1.3,0-2.7-0.3-4-0.9c-3.2-1.4-5.4-4.4-5.8-7.8l-1.3-9.7c0,0,0,0,0,0
					c-0.3-2.6,0.4-4.8,2.1-6.6c4.7-4.8,15.5-4,16-4c6.2,0.2,11.4,4.9,13.9,7.7c0.3,0.3,0.4,0.7,0.4,1.2c-0.3,3.6-0.8,7-1.4,10.1
					c-0.1,0.5-0.4,0.9-0.8,1.1l-13.5,7.1C258.5,840.4,256.6,841,254.6,841z M246.6,822.3l1.3,9.7c0.3,2.4,1.8,4.4,4,5.4
					c2.2,1,4.5,0.8,6.4-0.6c-0.1,0.1,0.1-0.1,0.3-0.2l13-6.8c0.5-2.6,0.8-5.4,1.1-8.4c-2.3-2.5-6.4-6.1-11.3-6.2
					c-2.8-0.2-10.6-0.1-13.6,3.1C246.8,819.3,246.4,820.6,246.6,822.3z"/>
			</g>
		</g>
		<g>
			<g>
				<path fill="#FFEBA8" d="M645.8,668.3c0,0,52.1-86-48.7-53.9c0,0-24.5-42.6-53.1-42.6v0c0,0,0,0,0,0c0,0,0,0,0,0v0
					c-28.6,0-53.1,42.6-53.1,42.6c-100.8-32.2-48.7,53.9-48.7,53.9c-24.3,26.1-20.9,79.1-20.9,79.1H544h0h122.6
					C666.6,747.3,670.1,694.3,645.8,668.3z"/>
				<path fill="#3C2415" d="M666.6,749.7H421.4c-1.2,0-2.2-0.9-2.3-2.2c-0.1-2.2-3.2-52.7,20.3-79.5c-4.2-7.3-20.8-38.8-8.4-54.5
					c8.5-10.7,28.3-11.4,58.9-1.8c4.9-8,27.4-42.1,54.1-42.1c26.7,0,49.2,34.2,54.1,42.1c30.6-9.5,50.4-8.9,58.9,1.8
					c12.4,15.7-4.3,47.2-8.4,54.5c23.5,26.9,20.5,77.4,20.3,79.5C668.9,748.7,667.9,749.7,666.6,749.7z M666.6,747.3L666.6,747.3
					L666.6,747.3z M423.6,745h240.8c0.3-10.1,0.3-53.1-20.3-75.2c-0.7-0.8-0.8-1.9-0.3-2.8c0.2-0.4,21.4-35.8,9.6-50.7
					c-7.2-9.1-26.4-9-55.6,0.3c-1,0.3-2.2-0.1-2.7-1c-0.2-0.4-24.2-41.4-51.1-41.4c-26.9,0-50.9,41-51.1,41.4
					c-0.5,0.9-1.7,1.4-2.7,1c-29.2-9.3-48.4-9.4-55.6-0.3c-11.8,15,9.4,50.4,9.6,50.7c0.5,0.9,0.4,2-0.3,2.8
					C423.3,691.9,423.3,734.9,423.6,745z"/>
			</g>
			<g>
				<path fill="#EEF1EE" d="M674.8,730c-0.9-11.3-2.7-18.6-2.7-18.6l-24.3,19.7l-33.6-24.9L587.5,734l-19.2-21.1l-11.3,19.4
					L544,720.1l-13.1,12.2l-11.3-19.4L500.5,734l-26.7-27.8l-33.6,24.9l-24.3-19.7c0,0-1.8,7.3-2.7,18.6c-0.2,3.2-0.5,6.8-0.5,10.6
					c-0.1,8.2,0.5,17.7,2.4,27.5c0.7,3.5,1.5,7.1,2.6,10.7c4.4,15.2,12.3,30.6,26,43.5c3.9,3.7,8.2,7.2,13.1,10.4
					c4,2.6,8.4,5.1,13.1,7.4c4,1.9,8.3,3.8,13,5.4c16.4,5.7,36.5,9.2,61.2,9.6h0c24.6-0.4,44.7-3.9,61.2-9.6c4.6-1.6,8.9-3.4,13-5.4
					c4.8-2.3,9.1-4.7,13.1-7.4c4.9-3.2,9.2-6.7,13.1-10.4c13.7-13,21.6-28.4,26-43.5c1-3.6,1.9-7.2,2.6-10.7
					c1.9-9.8,2.4-19.2,2.4-27.5C675.3,736.8,675.1,733.3,674.8,730z"/>
				<path fill="#3C2415" d="M544.1,857.4c-23.6-0.4-44.4-3.6-62-9.7c-4.5-1.5-8.9-3.4-13.2-5.5c-4.7-2.2-9.1-4.7-13.4-7.5
					c-4.8-3.2-9.4-6.8-13.4-10.6c-12.6-11.9-21.5-26.9-26.6-44.6c-1.1-3.8-2-7.5-2.6-11c-1.7-8.8-2.5-18.1-2.4-27.9
					c0-4.3,0.3-8.2,0.5-10.8c0.9-11.4,2.7-18.7,2.8-19c0.2-0.8,0.8-1.4,1.5-1.6c0.8-0.3,1.6-0.1,2.2,0.4l22.9,18.6l32.1-23.8
					c0.9-0.7,2.2-0.6,3,0.3l24.9,26l17.5-19.3c0.5-0.5,1.2-0.8,2-0.7c0.7,0.1,1.4,0.5,1.8,1.1l9.8,16.9l11-10.2
					c0.9-0.8,2.3-0.8,3.2,0l11,10.2l9.8-16.9c0.4-0.6,1-1.1,1.8-1.1c0.7-0.1,1.5,0.2,2,0.7l17.5,19.3l24.9-26c0.8-0.8,2.1-1,3-0.3
					l32.1,23.8l22.9-18.6c0.6-0.5,1.4-0.6,2.2-0.4c0.7,0.3,1.3,0.9,1.5,1.6c0.1,0.3,1.9,7.6,2.8,19c0,0,0,0,0,0
					c0.2,2.6,0.5,6.5,0.5,10.8c0.1,9.8-0.7,19.2-2.4,27.9c-0.6,3.5-1.5,7.2-2.6,10.9c-5.1,17.7-14.1,32.7-26.6,44.6
					c-4.1,3.9-8.6,7.4-13.4,10.6c-4.3,2.8-8.7,5.3-13.4,7.5c-4.3,2.1-8.7,3.9-13.2,5.5C588.4,853.8,567.6,857.1,544.1,857.4z
					 M417.4,715.6c-0.6,3.2-1.4,8.3-1.9,14.6c-0.2,2.5-0.4,6.3-0.5,10.5c-0.1,9.5,0.7,18.5,2.3,27c0.6,3.3,1.5,6.9,2.5,10.5
					c4.9,16.9,13.4,31.2,25.4,42.5c3.9,3.7,8.2,7.1,12.8,10.1c4.1,2.7,8.3,5.1,12.9,7.2c4.1,2,8.4,3.8,12.7,5.3
					c17.1,5.9,37.4,9.1,60.4,9.5c23-0.4,43.3-3.5,60.4-9.5c4.3-1.5,8.6-3.3,12.7-5.3c4.5-2.2,8.7-4.5,12.9-7.2
					c4.6-3.1,8.9-6.5,12.8-10.1c12-11.3,20.5-25.6,25.4-42.5c1.1-3.6,1.9-7.2,2.5-10.5c1.6-8.5,2.4-17.6,2.3-27
					c0-4.2-0.3-8-0.5-10.5c-0.5-6.3-1.3-11.4-1.9-14.6l-21.4,17.3c-0.8,0.7-2,0.7-2.8,0.1l-31.9-23.7l-25.3,26.3
					c-0.4,0.5-1.1,0.7-1.7,0.7c-0.6,0-1.2-0.3-1.7-0.8l-17.1-18.8l-9.7,16.7c-0.4,0.6-1,1-1.7,1.1c-0.7,0.1-1.4-0.1-1.9-0.6
					L544,723.3L532.5,734c-0.5,0.5-1.2,0.7-1.9,0.6c-0.7-0.1-1.3-0.5-1.7-1.1l-9.7-16.7l-17.1,18.8c-0.4,0.5-1,0.7-1.7,0.8
					c-0.6,0-1.3-0.2-1.7-0.7l-25.3-26.3L441.6,733c-0.8,0.6-2,0.6-2.8-0.1L417.4,715.6z"/>
			</g>
			<circle fill="#3C2415" cx="495" cy="669.4" r="12.4"/>
			<ellipse fill="#EF4136" cx="469.2" cy="687.2" rx="13.4" ry="6.3"/>
			<path fill="#3C2415" d="M535.6,679.3c-1.3,0-2.6-0.3-3.8-0.8c-5.3-2.2-6.6-8.4-6.6-8.7c-0.3-1.3,0.6-2.5,1.8-2.7
				c1.2-0.2,2.5,0.5,2.7,1.8c0,0.1,1,4.2,3.9,5.4c2.8,1.2,6.5-0.6,9.1-2.3c1.1-0.7,2.5-0.4,3.2,0.7c0.7,1.1,0.4,2.5-0.7,3.2
				C541.7,678.1,538.5,679.3,535.6,679.3z"/>
			<g>
				<path fill="#FFEBA8" d="M467.1,838.8c-12,11.6-34.4,36.9,29.7,10.8C485.5,846.9,475.6,843.2,467.1,838.8z"/>
				<path fill="#3C2415" d="M458.7,863.4c-4.1,0-5.8-1.2-6.8-2.8c-1.8-2.7-2.3-8.1,13.7-23.4c0.7-0.7,1.8-0.8,2.7-0.4
					c8.7,4.4,18.5,8,29.2,10.6c1,0.2,1.7,1.1,1.8,2.1c0.1,1-0.5,1.9-1.4,2.3C476.1,860.6,464.8,863.4,458.7,863.4z M467.5,841.6
					c-11.2,11-12.3,15.7-11.8,16.4c0.1,0.2,3,3.9,33.8-8C481.6,847.8,474.2,844.9,467.5,841.6z"/>
			</g>
			<g>
				<path fill="#F9A86D" d="M438.2,751.8c-1.2,4.6-5.9,18.6-20.6,27.1c-1-3.6-1.9-7.2-2.6-10.7c8.6-6.2,11.9-14.6,13-18.8
					c-2.9-4.5-10-7.3-15.4-8.7c0-3.8,0.2-7.4,0.5-10.6c6.6,1.4,19,5.3,24.2,14.6C438.6,746.7,438.9,749.3,438.2,751.8z"/>
				<path fill="#3C2415" d="M417.6,781.2c-0.3,0-0.6-0.1-0.9-0.2c-0.7-0.3-1.2-0.8-1.4-1.5c-1.1-3.8-2-7.5-2.6-11
					c-0.2-0.9,0.2-1.8,0.9-2.3c7.3-5.2,10.5-12.2,11.8-16.5c-2.3-2.8-7.2-5.3-13.4-6.9c-1-0.3-1.8-1.2-1.7-2.3
					c0-3.3,0.2-6.7,0.5-10.8c0.1-0.7,0.4-1.3,0.9-1.7c0.5-0.4,1.2-0.5,1.9-0.4c7.2,1.5,20.1,5.6,25.7,15.7c1.5,2.6,1.8,5.7,1.1,8.8
					c0,0,0,0,0,0c-1.5,5.6-6.6,19.7-21.6,28.5C418.5,781.1,418.1,781.2,417.6,781.2z M417.6,769.1c0.4,2,0.9,4,1.4,6.1
					c11.6-7.9,15.7-19.3,16.9-24.1c0.5-1.9,0.3-3.9-0.6-5.4c-4.2-7.6-14.1-11.3-20.1-12.9c-0.1,2.1-0.2,4.1-0.3,6
					c4.8,1.4,11.8,4.2,15,9.2c0.4,0.6,0.5,1.2,0.3,1.9C429.1,754.4,425.8,762.7,417.6,769.1z M438.2,751.8L438.2,751.8L438.2,751.8z
					"/>
			</g>
			<g>
				<path fill="#FFEBA8" d="M465.6,783.9c-4,1.8-8.7,1.9-12.8,0.1c-4.1-1.8-7.9-5.7-3.9-13.9c0,0,8.5-15.6,16.4-5.8
					C466,765.2,477.5,778.5,465.6,783.9z"/>
				<path fill="#3C2415" d="M459.1,787.6c-2.5,0-4.9-0.5-7.2-1.5c-3.2-1.5-5.4-3.6-6.3-6.3c-1.1-3-0.7-6.6,1.3-10.7
					c0.6-1.1,5.5-9.8,12.2-10.3c2.1-0.2,5.2,0.4,8.1,4.1c2.9,3.5,7.3,10.1,5.9,16c-0.7,3.1-2.9,5.5-6.4,7.1
					C464.2,787.1,461.6,787.6,459.1,787.6z M459.7,763.4c-0.1,0-0.2,0-0.3,0c-3.5,0.3-7.4,5.9-8.4,7.8c-1.3,2.8-1.7,5.2-1,7
					c0.5,1.5,1.9,2.7,3.9,3.7c3.3,1.5,7.4,1.5,10.8-0.1l0,0c2.2-1,3.4-2.3,3.8-4c0.7-2.9-1.2-7.3-4.9-11.9
					C461.8,763.6,460.4,763.4,459.7,763.4z"/>
			</g>
			<g>
				<path fill="#F9A86D" d="M488.5,823.4l-5.7,22.1c-4.6-1.6-8.9-3.4-13-5.4l5.2-20.2c0.1-0.6-0.2-1.1-0.7-1.3l-14.9-4.1
					c-0.3-0.1-0.6,0-0.9,0.1c-0.2,0.2-0.4,0.5-0.4,0.8l-1.4,17.3c-4.9-3.2-9.2-6.7-13.1-10.4l0.7-8c0.4-4.4,2.7-8.4,6.3-11
					c3.7-2.5,8.2-3.3,12.5-2.2l14.9,4.1C485.9,807.4,490.5,815.6,488.5,823.4z"/>
				<path fill="#3C2415" d="M482.9,847.8c-0.3,0-0.5,0-0.8-0.1c-4.5-1.6-8.9-3.4-13.2-5.5c-1-0.5-1.5-1.6-1.2-2.7l4.9-19l-12.2-3.3
					l-1.3,15.7c-0.1,0.8-0.6,1.5-1.3,1.9c-0.7,0.4-1.6,0.3-2.3-0.2c-4.8-3.2-9.3-6.8-13.4-10.6c-0.5-0.5-0.8-1.2-0.7-1.9l0.7-8
					c0.4-5.1,3.1-9.8,7.3-12.7c4.2-2.9,9.5-3.9,14.5-2.5l14.9,4.1c9,2.5,14.5,11.9,12.1,21l-5.7,22.1c-0.2,0.6-0.6,1.2-1.1,1.5
					C483.6,847.7,483.2,847.8,482.9,847.8z M472.6,838.9c2.8,1.3,5.7,2.5,8.6,3.6l5-19.7c0,0,0,0,0,0c1.7-6.6-2.3-13.5-8.9-15.3
					l-14.9-4.1c-3.6-1-7.5-0.3-10.6,1.8c-3.1,2.2-5,5.6-5.3,9.3l-0.6,6.9c2.7,2.5,5.7,4.9,8.7,7.1l1.1-13.3c0.1-1,0.6-1.9,1.4-2.5
					c1.2-0.8,2.3-0.7,2.9-0.4l14.8,4c1.7,0.5,2.8,2.3,2.4,4L472.6,838.9z M473.7,820.9C473.7,820.9,473.7,820.9,473.7,820.9
					L473.7,820.9z M458.9,816.8C458.9,816.9,458.9,816.9,458.9,816.8L458.9,816.8z"/>
			</g>
			<circle fill="#3C2415" cx="593" cy="669.4" r="12.4"/>
			<ellipse fill="#EF4136" cx="618.9" cy="687.2" rx="13.4" ry="6.3"/>
			<path fill="#3C2415" d="M552.4,679.3c-2.9,0-6.1-1.1-9.6-3.4c-1.1-0.7-1.4-2.1-0.7-3.2c0.7-1.1,2.1-1.4,3.2-0.7
				c2.6,1.7,6.3,3.5,9.1,2.3c3-1.3,3.9-5.4,3.9-5.4c0.3-1.2,1.5-2,2.7-1.8c1.2,0.3,2,1.5,1.8,2.7c-0.1,0.3-1.4,6.5-6.6,8.7
				C555,679,553.8,679.3,552.4,679.3z"/>
			<g>
				<path fill="#FFE19B" d="M553.8,677.1c-6.1,0.5-9.7-3.1-9.8-3.2v0l0,0l0,0v0c0,0-3.7,3.7-9.8,3.2c0,0-6.7,17.4,9.8,15.4
					C560.5,694.5,553.8,677.1,553.8,677.1z"/>
				<path fill="#3C2415" d="M541.5,694.9c-4,0-6.9-1.2-8.8-3.6c-4.2-5.3-1-14.1-0.6-15c0.4-1,1.3-1.6,2.4-1.5
					c4.6,0.4,7.6-2.1,7.9-2.5c0.2-0.2,0.5-0.4,0.8-0.5c0.9-0.4,1.9-0.2,2.5,0.5c0,0,3.1,2.9,8,2.5c1-0.1,2,0.5,2.4,1.5
					c0.4,1,3.5,9.7-0.6,15c-2.3,2.9-6.1,4.1-11.3,3.5C543.1,694.9,542.3,694.9,541.5,694.9z M544,690.1c0.1,0,0.2,0,0.3,0
					c3.7,0.5,6.1-0.1,7.4-1.7c1.8-2.2,1.1-6.4,0.4-9c-3.7-0.1-6.5-1.5-8.1-2.6c-1.6,1.1-4.4,2.5-8.1,2.6c-0.7,2.6-1.3,6.8,0.4,9
					c1.2,1.6,3.7,2.2,7.4,1.7C543.8,690.1,543.9,690.1,544,690.1z"/>
			</g>
			<g>
				<path fill="#FFEBA8" d="M621,838.8c12,11.6,34.4,36.9-29.7,10.8C602.6,846.9,612.4,843.2,621,838.8z"/>
				<path fill="#3C2415" d="M629.4,863.4c-6.1,0-17.4-2.8-39-11.6c-0.9-0.4-1.5-1.3-1.4-2.3c0.1-1,0.8-1.8,1.8-2.1
					c10.7-2.6,20.5-6.2,29.2-10.6c0.9-0.5,2-0.3,2.7,0.4c15.9,15.4,15.4,20.7,13.7,23.4C635.2,862.1,633.4,863.4,629.4,863.4z
					 M598.6,850.1c30.7,11.9,33.6,8.2,33.8,8c0.5-0.8-0.7-5.4-11.8-16.4C613.8,844.9,606.5,847.8,598.6,850.1z"/>
			</g>
			<g>
				<path fill="#F9A86D" d="M649.8,751.8c1.2,4.6,5.9,18.6,20.6,27.1c1-3.6,1.9-7.2,2.6-10.7c-8.6-6.2-11.9-14.6-13-18.8
					c2.9-4.5,10-7.3,15.4-8.7c0-3.8-0.2-7.4-0.5-10.6c-6.6,1.4-19,5.3-24.2,14.6C649.5,746.7,649.2,749.3,649.8,751.8z"/>
				<path fill="#3C2415" d="M670.4,781.2c-0.4,0-0.8-0.1-1.2-0.3c-15-8.8-20.2-22.9-21.7-28.5c0,0,0,0,0,0c-0.8-3.1-0.4-6.2,1.1-8.8
					c5.6-10.1,18.5-14.2,25.7-15.7c0.6-0.1,1.3,0,1.9,0.4c0.5,0.4,0.9,1,0.9,1.7c0.2,2.6,0.5,6.5,0.5,10.8c0,1.1-0.7,2-1.7,2.3
					c-6.2,1.6-11.1,4.1-13.4,6.9c1.3,4.3,4.5,11.3,11.8,16.5c0.7,0.5,1.1,1.4,0.9,2.3c-0.7,3.5-1.5,7.2-2.6,11
					c-0.2,0.7-0.7,1.2-1.4,1.5C671,781.1,670.7,781.2,670.4,781.2z M652.1,751.2c1.3,4.8,5.4,16.1,16.9,24.1c0.5-2.1,1-4.1,1.4-6.1
					c-8.2-6.4-11.4-14.7-12.7-19.2c-0.2-0.6-0.1-1.3,0.3-1.9c3.2-5,10.1-7.8,15-9.2c-0.1-2.2-0.2-4.2-0.3-6
					c-6,1.6-15.8,5.3-20.1,12.8C651.8,747.3,651.6,749.2,652.1,751.2z"/>
			</g>
			<g>
				<path fill="#FFEBA8" d="M622.4,783.9c4,1.8,8.7,1.9,12.8,0.1c4.1-1.8,7.9-5.7,3.9-13.9c0,0-8.5-15.6-16.4-5.8
					C622,765.2,610.6,778.5,622.4,783.9z"/>
				<path fill="#3C2415" d="M628.9,787.6c-2.6,0-5.1-0.5-7.5-1.6l0,0c-3.5-1.6-5.7-4-6.4-7.1c-1.4-5.9,3-12.5,5.8-15.9
					c3-3.8,6.1-4.4,8.2-4.2c6.6,0.6,11.6,9.2,12.1,10.2c2,4.2,2.4,7.8,1.3,10.8c-1,2.7-3.1,4.8-6.3,6.3
					C633.9,787.1,631.4,787.6,628.9,787.6z M623.4,781.8c3.5,1.6,7.5,1.6,10.8,0.1c2-0.9,3.4-2.2,3.9-3.7c0.7-1.8,0.3-4.2-1.1-7.1
					c-1-1.8-4.8-7.4-8.4-7.7c-0.5,0-2.1-0.2-4.1,2.4c-3.9,4.7-5.7,9.2-5,12.1C619.9,779.5,621.2,780.8,623.4,781.8L623.4,781.8z"/>
			</g>
			<g>
				<path fill="#F9A86D" d="M599.5,823.4l5.7,22.1c4.6-1.6,8.9-3.4,13-5.4l-5.2-20.2c-0.1-0.6,0.2-1.1,0.7-1.3l14.9-4.1
					c0.3-0.1,0.6,0,0.9,0.1c0.2,0.2,0.4,0.5,0.4,0.8l1.4,17.3c4.9-3.2,9.2-6.7,13.1-10.4l-0.7-8c-0.4-4.4-2.7-8.4-6.3-11
					c-3.7-2.5-8.2-3.3-12.5-2.2l-14.9,4.1C602.2,807.4,597.5,815.6,599.5,823.4z"/>
				<path fill="#3C2415" d="M605.2,847.8c-0.4,0-0.8-0.1-1.1-0.3c-0.6-0.3-1-0.8-1.1-1.5l-5.7-22.1v0c-2.3-9.1,3.1-18.5,12.1-21
					l14.9-4.1c4.9-1.4,10.2-0.5,14.4,2.5c4.2,3,6.9,7.6,7.3,12.7l0.7,8c0.1,0.7-0.2,1.4-0.7,1.9c-4.1,3.9-8.6,7.4-13.4,10.6
					c-0.7,0.5-1.5,0.5-2.3,0.2c-0.7-0.4-1.2-1.1-1.3-1.9l-1.3-15.7l-12.2,3.3l4.9,19c0.3,1.1-0.2,2.2-1.2,2.7
					c-4.3,2.1-8.7,3.9-13.2,5.5C605.7,847.8,605.4,847.8,605.2,847.8z M628.9,803c-1.1,0-2.2,0.1-3.4,0.5l-14.9,4.1
					c-6.6,1.8-10.6,8.7-8.9,15.3c0,0,0,0,0,0l5,19.7c2.9-1.1,5.8-2.3,8.6-3.6l-4.7-18.4c-0.4-1.8,0.6-3.6,2.4-4.1l14.9-4.1
					c0.5-0.2,1.6-0.3,2.7,0.4c0.9,0.6,1.4,1.5,1.5,2.5l1.1,13.4c3.1-2.2,6-4.6,8.7-7.1l-0.6-6.9c-0.3-3.7-2.3-7.1-5.4-9.3
					C633.9,803.7,631.4,803,628.9,803z M614.3,820.9L614.3,820.9C614.3,820.9,614.3,820.9,614.3,820.9z M629.3,816.8l-0.1,0
					C629.2,816.8,629.3,816.8,629.3,816.8z"/>
			</g>
			<g>
				<path fill="#AADEE9" d="M520.6,809.8c-3.7,0-7.2-1.8-9.4-4.9c-2.3-3.2-2.7-7.3-1.3-10.9l10.9-27.3c1.4-3.4,4.3-5.9,7.8-6.8
					c3.5-0.9,7.3,0,10.1,2.4l30.4,25.7c3.6,3.1,5,7.9,3.4,12.4c-1.5,4.5-5.6,7.5-10.3,7.7l-41.3,1.7
					C520.9,809.8,520.8,809.8,520.6,809.8z M532.5,775.2l-8.3,20.6l31.2-1.3L532.5,775.2z"/>
				<path fill="#3C2415" d="M520.6,812.2c-4.5,0-8.7-2.2-11.3-5.8c-2.7-3.8-3.3-8.8-1.5-13.1l10.9-27.3c1.6-4.1,5.2-7.1,9.4-8.2
					c4.3-1.1,8.8,0,12.2,2.8l30.4,25.7c4.4,3.7,6,9.5,4.1,14.9c-1.8,5.4-6.7,9-12.4,9.3L520.6,812.2z M531.4,761.9
					c-0.7,0-1.5,0.1-2.2,0.3c-2.8,0.7-5.2,2.7-6.2,5.4l-10.9,27.3c-1.2,2.9-0.8,6.2,1,8.7c1.7,2.4,4.5,3.9,7.5,3.9l0.4,0l41.2-1.7
					c3.8-0.2,7-2.6,8.2-6.1c1.2-3.6,0.1-7.5-2.7-9.9l-30.4-25.7C535.7,762.7,533.6,761.9,531.4,761.9z M524.2,798.1
					c-0.7,0-1.5-0.4-1.9-1c-0.5-0.6-0.6-1.5-0.3-2.2l8.3-20.6c0.3-0.7,0.9-1.2,1.6-1.4s1.5,0,2,0.5l22.9,19.3c0.7,0.6,1,1.6,0.7,2.5
					c-0.3,0.9-1.1,1.5-2.1,1.6L524.2,798.1C524.3,798.1,524.2,798.1,524.2,798.1z M533.4,779l-5.7,14.3l21.7-0.9L533.4,779z"/>
			</g>
		</g>
		<g>
			<g>
				<path fill="#A5DFF6" d="M944.4,783.6c0,0,26.3,3.3,25-35.3c0,0-2.8-21.7,13.1-26c0,0,25.9-9,29.5,22.5c0,0,4.1,21.4-12.9,26.8
					c0,0-13.4,3.9-20.6-4.8c0,0-9.2,56.1-51.9,56.6C926.7,823.5,942.3,813.1,944.4,783.6z"/>
				<path fill="#3C2415" d="M926.7,825.8c-1,0-1.9-0.7-2.2-1.6c-0.3-1,0.1-2,0.9-2.6c0.1-0.1,14.7-10.2,16.7-38.2
					c0-0.6,0.3-1.2,0.8-1.6c0.5-0.4,1.1-0.6,1.7-0.5l0,0c0.1,0,7.9,0.9,14.2-4.9c5.9-5.4,8.7-14.8,8.2-28c-1-8,0.7-24.5,14.8-28.3
					c0.3-0.1,11.4-3.9,20.8,2c6.5,4.1,10.4,11.6,11.7,22.4c1.5,7.9,0.5,24.5-14.4,29.3c-0.6,0.2-11.7,3.3-19.9-2.5
					C976.8,784.5,963.9,825.4,926.7,825.8C926.7,825.8,926.7,825.8,926.7,825.8z M946.5,786c-1.7,18.3-8.5,29.1-13.4,34.7
					c34.7-5.8,43.1-53.6,43.2-54.1c0.1-0.9,0.8-1.6,1.7-1.9c0.9-0.2,1.8,0,2.4,0.7c6.2,7.3,18.1,4.1,18.2,4
					c14.7-4.7,11.3-24,11.2-24.1c-1.1-9.5-4.3-15.9-9.6-19.2c-7.5-4.7-16.9-1.6-17-1.5c-14,3.8-11.6,23.3-11.6,23.5
					c0.5,14.8-2.8,25.5-9.8,31.8C956.3,784.9,949.9,785.9,946.5,786z"/>
			</g>
			<g>
				<path fill="#D7B07F" d="M928,724.4c-2.2,0.6-4.4,1.1-6.6,1.6c-27.6,5.9-53.8,3.5-53.8,3.5s-26.2,2.4-53.8-3.5
					c-2.2-0.5-4.4-1-6.6-1.6c-60.4,129.2,60.4,117.3,60.4,117.3S988.4,853.6,928,724.4z"/>
				<path fill="#3C2415" d="M875.6,844.3c-4.2,0-7.1-0.2-8-0.3c-4.1,0.4-49.8,3.8-70.2-25.1c-14.8-20.9-12.2-53,7.7-95.6
					c0.5-1,1.6-1.5,2.7-1.3c2.1,0.6,4.3,1.1,6.5,1.5c27,5.7,52.9,3.5,53.1,3.5c0.1,0,0.3,0,0.4,0c0.3,0,26.2,2.3,53.1-3.5
					c2.2-0.5,4.3-1,6.5-1.5c1.1-0.3,2.2,0.2,2.7,1.3c19.9,42.5,22.5,74.7,7.7,95.6C921.9,841.5,890.5,844.3,875.6,844.3z
					 M867.6,839.4c0.1,0,0.2,0,0.2,0c0.5,0,46.9,4.2,66.2-23.1c13.5-19.1,11.1-49.1-7.3-89.2c-1.6,0.4-3.2,0.8-4.8,1.1
					c-26.7,5.7-51.6,3.8-54.3,3.6c-2.7,0.2-27.6,2.1-54.3-3.6c-1.6-0.3-3.2-0.7-4.8-1.1c-18.4,40-20.9,70-7.3,89.2
					c19.4,27.4,65.8,23.2,66.2,23.1C867.4,839.4,867.5,839.4,867.6,839.4z"/>
			</g>
			<g>
				<path fill="#F5EAB1" d="M921.4,726c-27.6,5.9-53.8,3.5-53.8,3.5s-26.2,2.4-53.8-3.5c-7.5,14.8-32.3,70.6-0.6,96.5
					c0,0,19.3,15.7,54.5,13.1c35.2,2.6,54.5-13.1,54.5-13.1C953.7,796.6,928.8,740.7,921.4,726z"/>
				<path fill="#3C2415" d="M859.6,837.4c-30.2,0-46.7-13.1-47.5-13.7c-14-11.4-19-29.5-14.9-53.8c3.3-19.6,11.7-37.7,15.1-44.5
					c0.3-0.6,1-1,1.7-0.8c27.1,5.8,53.1,3.5,53.3,3.5c0.5,0,26.5,2.3,53.6-3.5c0.7-0.1,1.4,0.2,1.7,0.8c3.5,6.9,11.9,24.9,15.1,44.5
					c4.1,24.3-0.9,42.4-14.9,53.8c-0.8,0.7-20.1,16-55.5,13.4C864.7,837.3,862.1,837.4,859.6,837.4z M814.6,727.7
					c-6.6,13.4-31.1,68.6-0.5,93.5c0.2,0.2,19.3,15.2,53.4,12.8c34.3,2.5,53.4-12.6,53.6-12.8c30.6-25,6.1-80.1-0.5-93.5
					c-27.1,5.6-52.8,3.3-53.1,3.3C867.4,731,841.7,733.3,814.6,727.7z"/>
			</g>
			<g>
				<path fill="#A5DFF6" d="M983.1,640.9c0,0,17.7-98-115.6-97.8C734.3,542.9,752,640.9,752,640.9c-20,100.9,115.6,88.6,115.6,88.6
					S1003.2,741.8,983.1,640.9z"/>
				<path fill="#3C2415" d="M881.6,732.3c-7.6,0-12.8-0.4-14-0.5c-5.1,0.4-73.3,5.6-104.7-29.3c-13.8-15.3-18.2-36.1-13.3-61.7
					c-0.7-4.4-5-37.5,17.8-64.8c19.6-23.5,53.2-35.4,99.9-35.4c0.1,0,0.3,0,0.4,0c46.7,0,80.3,11.9,99.9,35.4
					c22.8,27.3,18.5,60.4,17.8,64.8c5,25.6,0.5,46.3-13.3,61.7C948.7,728.7,904.4,732.3,881.6,732.3z M867.6,727.2
					c0.1,0,0.1,0,0.2,0c0.7,0.1,70.7,6,101-27.8c12.8-14.3,16.9-33.8,12.1-58.1c-0.1-0.3-0.1-0.6,0-0.9c0.1-0.3,5.9-34.5-16.7-61.5
					c-18.7-22.3-51.1-33.7-96.3-33.7c-0.1,0-0.3,0-0.4,0c-45.3,0-77.7,11.3-96.4,33.7c-22.6,27-16.7,61.1-16.7,61.4
					c0.1,0.3,0,0.6,0,0.9c-4.8,24.3-0.8,43.8,12.1,58.1c30.4,33.8,100.3,27.8,101,27.8C867.4,727.2,867.5,727.2,867.6,727.2z"/>
			</g>
			<g>
				<path fill="#A5DFF6" d="M840.2,853c0,0,2.2-5.4,2.9-12.2c-9.9-1.4-21.2-4.5-30.8-10.8l0,0c0,0-4.3,10,2.8,18.9
					c0,0-5.2,4-2.8,7.7c0,0,2.1,6.1,24.1,4c3.6-0.3,5.9-4.3,4-7.5L840.2,853z"/>
				<path fill="#3C2415" d="M827.9,863.4c-13.6,0-16.9-4-17.7-5.7c-2-3.4-0.2-6.8,1.8-9.1c-6-9.3-2-19-1.8-19.5
					c0.5-1.1,1.6-1.6,2.8-1.3c0.2,0.1,0.4,0.2,0.6,0.3c7.9,5.2,18,8.7,29.9,10.4c1.2,0.2,2.1,1.3,2,2.5c-0.6,5.4-2,9.9-2.7,11.8
					c0.8,1.9,0.7,4.1-0.3,6c-1.2,2.3-3.4,3.8-6,4C833.2,863.2,830.4,863.4,827.9,863.4z M814.4,855.8c0,0,3.1,4.2,21.7,2.5
					c1-0.1,1.8-0.7,2.3-1.6c0.2-0.4,0.6-1.4,0-2.4c-0.4-0.6-0.5-1.5-0.2-2.2c0,0,1.6-4.1,2.4-9.4c-10.3-1.7-19.3-4.8-26.9-9.2
					c-0.6,3.2-0.9,8.7,3.2,13.9c0.4,0.5,0.6,1.1,0.5,1.7c-0.1,0.6-0.4,1.2-0.9,1.6c0,0-3.4,2.8-2.3,4.6
					C814.3,855.5,814.4,855.7,814.4,855.8C814.4,855.8,814.4,855.8,814.4,855.8z"/>
			</g>
			<g>
				<path fill="#A5DFF6" d="M801,738.5l-13.4,11c0,0-12.1-8-8.2,4.1c0,0-8,3.6-2.6,12.6l5.1,7.7c0,0,3.3,4.6,9.1,0
					C791.1,773.9,792.6,758.8,801,738.5z"/>
				<path fill="#3C2415" d="M786.2,778.3c-0.4,0-0.7,0-1.1-0.1c-3.1-0.4-4.8-2.7-5-3l-5.2-7.8c-2.2-3.6-2.8-6.9-1.8-9.9
					c0.8-2.4,2.4-4,3.6-5c-0.5-2.2-0.8-5.4,1.4-7.1c2.6-2,6.8-0.2,9.3,1.2l12.1-9.9c0.8-0.7,2-0.7,2.8-0.1c0.9,0.6,1.2,1.8,0.8,2.7
					c-8.2,19.7-9.7,34.6-9.7,34.7c-0.1,0.6-0.4,1.2-0.9,1.6C790.4,777.4,788.3,778.3,786.2,778.3z M784,772.6c0,0,0.7,0.9,1.9,1
					c1,0.1,2.2-0.4,3.1-1c0.4-3.2,2-13.2,6.8-26.7l-6.6,5.4c-0.8,0.6-1.9,0.7-2.7,0.1c-2-1.3-4.6-2.4-5.5-2.2c0.1,0.1-0.1,1,0.7,3.7
					c0.4,1.1-0.2,2.3-1.3,2.8c0,0-2.2,1.1-2.9,3.3c-0.5,1.7-0.1,3.7,1.3,6L784,772.6C784,772.6,784,772.6,784,772.6z"/>
			</g>
			<circle fill="#3C2415" cx="806.3" cy="642" r="11.6"/>
			<ellipse fill="#EF4136" cx="784.7" cy="663.1" rx="12.7" ry="5.8"/>
			<path fill="#3C2415" d="M867.6,677.5c-0.6,0-1.3-0.3-1.7-0.8L850,658.8c-0.8-1-0.8-2.4,0.2-3.3c1-0.8,2.4-0.8,3.3,0.2l15.8,17.8
				c0.8,1,0.8,2.4-0.2,3.3C868.7,677.3,868.1,677.5,867.6,677.5z"/>
			<g>
				<path fill="#A5DFF6" d="M894.9,853c0,0-2.2-5.4-2.9-12.2c9.9-1.4,21.2-4.5,30.8-10.8l0,0c0,0,4.3,10-2.8,18.9c0,0,5.2,4,2.8,7.7
					c0,0-2.1,6.1-24.1,4c-3.6-0.3-5.9-4.3-4-7.5L894.9,853z"/>
				<path fill="#3C2415" d="M907.3,863.4c-2.5,0-5.4-0.1-8.6-0.4c-2.6-0.2-4.8-1.8-6-4c-1-1.9-1.1-4.1-0.3-6
					c-0.7-1.9-2.1-6.4-2.7-11.8c-0.1-1.2,0.7-2.4,2-2.5c11.9-1.7,21.9-5.2,29.9-10.4c0.2-0.1,0.5-0.2,0.7-0.3
					c1.1-0.3,2.2,0.3,2.7,1.3c0.2,0.4,4.2,10.1-1.8,19.5c2.1,2.2,3.8,5.7,1.8,9.1C924.2,859.4,920.9,863.4,907.3,863.4z
					 M894.6,842.7c0.8,5.4,2.4,9.4,2.4,9.4c0.3,0.7,0.2,1.4-0.2,2l-0.1,0.2c-0.6,1-0.2,2.1,0,2.4c0.5,0.9,1.3,1.5,2.3,1.6
					c18.9,1.8,21.7-2.6,21.7-2.7c0.1-0.2,0.1-0.1,0.2-0.3c1.2-1.8-2.3-4.6-2.3-4.6c-0.5-0.4-0.8-0.9-0.9-1.6
					c-0.1-0.6,0.1-1.2,0.5-1.7c4.1-5.1,3.8-10.7,3.2-13.9C914,837.9,905,841,894.6,842.7z"/>
			</g>
			<g>
				<path fill="#A5DFF6" d="M934.1,738.5l13.4,11c0,0,12.1-8,8.2,4.1c0,0,8,3.6,2.6,12.6l-5.1,7.7c0,0-3.3,4.6-9.1,0
					C944,773.9,942.6,758.8,934.1,738.5z"/>
				<path fill="#3C2415" d="M948.9,778.3c-2.1,0-4.2-0.9-6.4-2.6c-0.5-0.4-0.8-1-0.9-1.6c0-0.1-1.5-15-9.7-34.7
					c-0.4-1-0.1-2.1,0.8-2.7c0.9-0.6,2-0.6,2.8,0.1l12.1,9.9c2.4-1.4,6.6-3.2,9.3-1.2c2.3,1.7,1.9,4.9,1.4,7.1c1.3,1,2.9,2.6,3.6,5
					c0.9,3,0.3,6.3-1.8,9.8l-5.2,7.8c-0.2,0.3-1.9,2.6-5,3C949.6,778.2,949.3,778.3,948.9,778.3z M946.2,772.6c0.9,0.6,2,1.1,3.1,1
					c1.2-0.1,1.9-1.1,1.9-1.1l5.1-7.6c1.3-2.2,1.8-4.3,1.3-5.9c-0.7-2.2-2.9-3.3-2.9-3.3c-1-0.5-1.6-1.7-1.2-2.8
					c1-3,0.6-3.8,0.6-3.8c-0.5-0.1-3.3,1-5.3,2.3c-0.8,0.6-2,0.5-2.7-0.1l-6.6-5.4C944.2,759.4,945.8,769.4,946.2,772.6z"/>
			</g>
			<circle fill="#3C2415" cx="928.9" cy="642" r="11.6"/>
			<ellipse fill="#EF4136" cx="950.4" cy="663.1" rx="12.7" ry="5.8"/>
			<path fill="#3C2415" d="M867.6,677.5c-0.5,0-1.1-0.2-1.5-0.6c-1-0.8-1-2.3-0.2-3.3l15.8-17.8c0.8-1,2.3-1,3.3-0.2
				c1,0.8,1,2.3,0.2,3.3l-15.8,17.8C868.8,677.2,868.2,677.5,867.6,677.5z"/>
			<path fill="#3C2415" d="M938,790.1l-19.7-12.5l16.9-14.3c0.6-0.5,0.7-1.5,0.2-2.2c-0.5-0.6-1.5-0.7-2.2-0.2l-18.1,15.3h-46.1
				v-26.7l14.5-18.6c0.5-0.7,0.4-1.6-0.3-2.2c-0.7-0.5-1.6-0.4-2.1,0.3l-13.6,17.5L854,729c-0.5-0.7-1.5-0.8-2.1-0.3
				c-0.7,0.5-0.8,1.5-0.3,2.2l14.5,18.6v26.7H820l-18.1-15.3c-0.6-0.6-1.6-0.5-2.2,0.2c-0.5,0.7-0.5,1.6,0.2,2.2l16.9,14.3
				l-19.6,12.5c-0.7,0.5-0.9,1.4-0.5,2.1c0.3,0.5,0.8,0.7,1.3,0.7c0.3,0,0.6-0.1,0.8-0.2l21-13.4H866v38l-14.7,17.3
				c-0.5,0.6-0.5,1.6,0.2,2.2c0.3,0.2,0.6,0.4,1,0.4c0.4,0,0.9-0.2,1.2-0.5l13.9-16.4l13.9,16.4c0.3,0.4,0.7,0.5,1.2,0.5
				c0.4,0,0.7-0.1,1-0.4c0.6-0.6,0.7-1.5,0.2-2.2l-14.7-17.3v-38h46.2l21,13.4c0.3,0.2,0.5,0.2,0.8,0.2c0.5,0,1-0.3,1.3-0.7
				C938.9,791.5,938.7,790.5,938,790.1z"/>
		</g>
		<g>
			<g>
				<path fill="#FFE572" d="M1318.5,229.7c-5.4-28.1-28-76.1-114.3-78.4c-86.3,2.3-109,50.3-114.3,78.4c-2.1,11.2-2.2,22.9,1.5,33.7
					c18.8,54.5,112.8,45.8,112.8,45.8s94,8.7,112.8-45.8C1320.7,252.7,1320.6,241,1318.5,229.7z"/>
				<path fill="#3C2415" d="M1218.4,312.1c-7.8,0-13-0.4-14.2-0.5c-2.6,0.2-24.9,2-49.8-2.5c-34.7-6.2-57.3-21.7-65.3-44.9
					c-3.5-10.2-4-21.9-1.6-34.9c2.6-13.7,9.5-33.5,27.5-50.1c20.6-19,50.5-29.1,89-30.2c38.6,1,68.6,11.2,89.1,30.2
					c18,16.6,24.9,36.4,27.5,50.1l0,0c2.5,13,2,24.7-1.6,34.9c-8,23.1-30.6,38.7-65.3,44.9C1240.4,311.5,1227.6,312.1,1218.4,312.1z
					 M1204.1,153.6c-85.1,2.3-106.7,48.9-112,76.5c-2.3,12.2-1.9,23.1,1.4,32.5c18,52.2,109.5,44.4,110.4,44.3c0.1,0,0.3,0,0.4,0
					c0.9,0.1,92.4,7.9,110.4-44.3c3.3-9.4,3.7-20.4,1.4-32.5C1310.9,202.6,1289.4,155.9,1204.1,153.6z"/>
			</g>
			<g>
				<path fill="#FFE572" d="M1281.7,298.6c-33.4,14.5-77.5,10.7-77.5,10.7s-44.1,3.8-77.5-10.7c0,0-42.6,60.5-16.8,102.6
					c4.5,7.4,11,13.3,18.5,17.6c13.1,7.6,39.1,17.6,75.8,17.6s62.8-10,75.8-17.6c7.5-4.4,14-10.3,18.5-17.6
					C1324.2,359.1,1281.7,298.6,1281.7,298.6z"/>
				<path fill="#3C2415" d="M1204.2,438.8c-41.7,0-67.8-12.6-77-18c-8.2-4.8-14.9-11.2-19.3-18.4c-10.9-17.9-11.4-41.8-1.4-69.1
					c7.4-20.4,17.9-35.4,18.3-36c0.6-0.9,1.8-1.2,2.8-0.8c32.5,14.1,76,10.5,76.4,10.5c0.1,0,0.3,0,0.4,0c0.4,0,43.9,3.6,76.4-10.5
					c1-0.4,2.2-0.1,2.8,0.8c0.4,0.6,10.9,15.6,18.3,36c10,27.4,9.5,51.3-1.4,69.1c-4.4,7.3-11.1,13.7-19.3,18.4
					C1271.9,426.3,1245.9,438.8,1204.2,438.8z M1127.5,301.5c-6.3,9.6-38.1,61.9-15.7,98.6c4,6.6,10.2,12.5,17.7,16.9
					c8.9,5.2,34.1,17.3,74.7,17.3c40.6,0,65.7-12.1,74.7-17.3c7.5-4.4,13.7-10.2,17.7-16.9c22.4-36.7-9.4-89-15.7-98.6
					c-32.5,13.4-73.1,10.4-76.7,10.1C1200.6,311.9,1160,314.8,1127.5,301.5z"/>
			</g>
			<g>
				<path fill="#FFE19B" d="M1262.1,250.5c17.3-15.9-16.8-17.2-16.8-17.2c-8.9,0.5-13.7-4.5-13.7-4.5c-10.4-8.5-27.4-9.6-27.4-9.6
					s-16.9,1.2-27.4,9.6c0,0-4.8,5-13.7,4.5c0,0-34.1,1.3-16.8,17.2c0,0-31,67,8.6,82.4c0,0,18.5,8.7,49.3,6c30.8,2.7,49.3-6,49.3-6
					C1293,317.5,1262.1,250.5,1262.1,250.5z"/>
				<path fill="#3C2415" d="M1216,341.8c-3.7,0-7.6-0.2-11.8-0.5c-31,2.7-49.5-5.9-50.3-6.3c-8.6-3.3-14.8-9.4-18.2-17.9
					c-9.4-23.4,4.5-58.3,7.9-66c-3.9-4-5.2-7.6-4-10.9c2.9-8,20.1-9,23.5-9.1c7.9,0.4,12-3.6,12.2-3.8c11-9,28.1-10.3,28.8-10.3
					c0.1,0,0.2,0,0.3,0c0.7,0,17.8,1.3,28.7,10.1c0.4,0.4,4.4,4.4,12.1,4c3.6,0.1,20.8,1.2,23.7,9.1c1.2,3.3-0.1,7-4,10.9
					c3.3,7.8,17.3,42.6,7.9,66c-3.4,8.5-9.6,14.6-18.4,18C1253.8,335.3,1239.8,341.8,1216,341.8z M1204.2,336.6c0.1,0,0.1,0,0.2,0
					c29.7,2.6,47.9-5.7,48.1-5.8c7.7-3,13-8.2,15.9-15.5c9.7-24.1-8.3-63.5-8.4-63.9c-0.4-0.9-0.2-2,0.5-2.7c3.2-2.9,4.6-5.4,4-7.1
					c-1.4-3.8-12.2-5.8-19.4-6.1c-9.7,0.6-15.1-5-15.3-5.2c-9-7.3-24-8.8-25.7-8.9c-1.7,0.1-16.7,1.6-25.9,9.1c0,0-5.5,5.6-15.3,5
					c-7,0.3-17.8,2.4-19.1,6.1c-0.6,1.6,0.8,4.1,4,7.1c0.7,0.7,1,1.8,0.5,2.7c-0.2,0.4-18.1,39.8-8.4,63.9
					c2.9,7.3,8.3,12.5,15.8,15.4c0.3,0.1,18.5,8.5,48.3,5.9C1204,336.6,1204.1,336.6,1204.2,336.6z"/>
			</g>
			
				<ellipse transform="matrix(0.5514 -0.8342 0.8342 0.5514 333.5062 1096.9208)" fill="#3C2415" cx="1186.7" cy="238.3" rx="5.1" ry="2.6"/>
			<g>
				<path fill="#EEF1EE" d="M1166,205.8c-2.3-10.1-16.3-15.5-31.3-12.1c-15,3.4-25.4,14.3-23.1,24.3c0,0.1,0.1,0.2,0.1,0.3
					l-30.4,6.7c0,0-14.6-5.5-17.3,3.9c0,0-2.9,8.9,5.8,12.1c0,0,6.1,2,11.3-5l33.3-12.6c5.3,6.3,16.5,9.2,28.4,6.5
					C1158,226.7,1168.3,215.8,1166,205.8z"/>
				<path fill="#3C2415" d="M1072,243.7c-1.6,0-2.7-0.3-2.8-0.4c-8.6-3.2-8.5-11.3-7.3-15.1c0.7-2.6,2.4-4.6,4.8-5.8
					c5.2-2.6,12.5-0.6,14.8,0.2l27.6-6.1c-0.9-10.7,9.8-21.7,25.2-25.1c7.7-1.7,15.4-1.3,21.8,1.1c6.6,2.6,11,7.1,12.3,12.8l0,0
					c1.3,5.6-0.7,11.6-5.7,16.8c-4.7,4.9-11.5,8.6-19.2,10.3c-11.7,2.6-23.3,0.2-29.6-6.1l-31.2,11.8
					C1078.9,242.8,1074.7,243.7,1072,243.7z M1072.8,225.7c-1.5,0-2.9,0.2-4,0.8c-1.2,0.6-2,1.6-2.4,3.1c-0.2,0.8-2,6.9,4.4,9.3
					c0.1,0,4.6,1.3,8.7-4.2c0.3-0.4,0.6-0.6,1-0.8l33.3-12.6c0.9-0.3,2-0.1,2.6,0.7c4.9,5.9,15.4,8.2,26.2,5.8
					c6.8-1.5,12.8-4.7,16.9-9c3.8-4,5.4-8.5,4.5-12.6l0,0c-0.9-4.1-4.3-7.5-9.4-9.5c-5.5-2.1-12.3-2.5-19.1-0.9
					c-13.7,3.1-23.3,12.8-21.3,21.6l0.1,0.3c0.2,0.6,0.1,1.3-0.3,1.8c-0.3,0.5-0.9,0.9-1.5,1.1l-30.4,6.7c-0.4,0.1-0.9,0.1-1.3-0.1
					C1079.2,226.7,1075.9,225.7,1072.8,225.7z"/>
			</g>
			<circle fill="#3C2415" cx="1147.9" cy="209.3" r="3.2"/>
			<g>
				<path fill="#FFE572" d="M1092.8,267.1c0,0-17.3,45.3,16.2,65.8c0,0,10.2-25.5,17.6-34.4C1126.6,298.6,1104.6,292.3,1092.8,267.1
					z"/>
				<path fill="#3C2415" d="M1109,335.3c-0.4,0-0.8-0.1-1.2-0.3c-34.8-21.3-17.4-68.1-17.2-68.6c0.3-0.9,1.1-1.5,2.1-1.5
					c0.9-0.1,1.8,0.5,2.2,1.3c11.2,23.8,32.2,30.2,32.4,30.2c0.8,0.2,1.3,0.8,1.6,1.5c0.2,0.7,0.1,1.6-0.4,2.2
					c-7.1,8.5-17.2,33.5-17.3,33.7c-0.3,0.6-0.8,1.1-1.4,1.3C1109.5,335.2,1109.2,335.3,1109,335.3z M1093.3,273.2
					c-1.2,4.5-2.6,11.5-2.7,19.3c-0.1,16.5,5.7,28.9,17.3,37c2.5-6.1,9.2-21.4,15-29.8C1116.8,297.2,1103,290,1093.3,273.2z"/>
			</g>
			<g>
				<path fill="#D7B07F" d="M1128.3,418.9l-11.5,15.5c-1.3,1.8-2.4,3.7-3.2,5.7c-1.9,5.2-2.3,12.8,15.7,6.6c0,0,4.5,24,20.5,5.1
					c0,0,17.8,30.5,18.7-18.4C1168.6,433.4,1145.7,429.9,1128.3,418.9z"/>
				<path fill="#3C2415" d="M1160.5,463.5c-4.4,0-8.5-4.7-10.8-7.9c-4.6,4.7-8.9,6.5-12.8,5.5c-5.4-1.4-8-7.8-9.1-11.4
					c-7.8,2.4-12.7,2.3-15.4-0.4c-1.5-1.5-2.8-4.4-0.9-9.9c0.8-2.1,1.9-4.2,3.5-6.3l11.5-15.5c0.7-1,2.1-1.2,3.1-0.6
					c16.8,10.6,39.2,14.2,39.4,14.2c1.1,0.2,2,1.2,2,2.3c-0.3,18.9-3.2,28.4-8.9,29.9C1161.5,463.5,1161,463.5,1160.5,463.5z
					 M1150,449.5c0.1,0,0.1,0,0.2,0c0.7,0.1,1.4,0.5,1.8,1.1c2.2,3.8,6.6,8.8,8.9,8.2c0.8-0.2,4.8-2.4,5.4-23.5
					c-5.8-1.1-22.9-4.8-37.4-13.4l-10.2,13.8c-1.3,1.8-2.2,3.5-2.8,5.1c-0.9,2.4-1,4.3-0.2,5.1c0.5,0.5,3,2,13-1.5
					c0.6-0.2,1.3-0.2,1.9,0.2c0.6,0.3,1,0.9,1.1,1.6c0.5,2.4,2.6,9.4,6.4,10.4c2.6,0.7,6.1-1.5,10.2-6.3
					C1148.6,449.8,1149.3,449.5,1150,449.5z"/>
			</g>
			
				<ellipse transform="matrix(0.8342 -0.5514 0.5514 0.8342 71.0836 713.1277)" fill="#3C2415" cx="1221.6" cy="238.3" rx="2.6" ry="5.1"/>
			<g>
				<path fill="#EEF1EE" d="M1242.3,205.8c2.3-10.1,16.3-15.5,31.3-12.1c15,3.4,25.4,14.3,23.1,24.3c0,0.1-0.1,0.2-0.1,0.3l30.4,6.7
					c0,0,14.6-5.5,17.3,3.9c0,0,2.9,8.9-5.8,12.1c0,0-6.1,2-11.3-5l-33.3-12.6c-5.3,6.3-16.5,9.2-28.4,6.5
					C1250.4,226.7,1240,215.8,1242.3,205.8z"/>
				<path fill="#3C2415" d="M1336.3,243.7c-2.7,0-6.9-0.9-10.6-5.6l-31.2-11.8c-6.3,6.2-17.9,8.7-29.6,6.1
					c-16.2-3.6-27.4-15.8-24.8-27.1l0,0c2.5-11.3,17.8-17.5,34-13.9c7.7,1.7,14.5,5.4,19.2,10.3c4.3,4.6,6.4,9.8,6,14.8l27.6,6.1
					c2.3-0.8,9.6-2.9,14.8-0.2c2.4,1.2,4,3.2,4.8,5.9c1.2,3.7,1.3,11.7-7.2,14.9C1339.1,243.3,1337.9,243.7,1336.3,243.7z
					 M1293.8,221.3c0.3,0,0.6,0,0.8,0.1l33.3,12.6c0.4,0.2,0.8,0.4,1,0.8c4.2,5.5,8.7,4.2,8.8,4.1c6.2-2.4,4.5-8.5,4.3-9.2
					c-0.4-1.5-1.2-2.5-2.4-3.1c-3.5-1.8-9.7-0.1-11.8,0.7c-0.4,0.2-0.9,0.2-1.3,0.1l-30.4-6.7c-0.6-0.1-1.1-0.5-1.5-1.1
					c-0.3-0.5-0.4-1.2-0.3-1.8c0-0.1,0.1-0.2,0.1-0.3c0.9-4.1-0.7-8.5-4.5-12.5c-4-4.3-10-7.5-16.9-9c-13.7-3.1-26.5,1.6-28.5,10.4
					l0,0c-2,8.8,7.6,18.5,21.3,21.6c10.8,2.4,21.3,0.1,26.2-5.8C1292.5,221.6,1293.1,221.3,1293.8,221.3z"/>
			</g>
			<circle fill="#3C2415" cx="1260.4" cy="209.3" r="3.2"/>
			<g>
				<path fill="#FFE572" d="M1315.6,267.1c0,0,17.3,45.3-16.2,65.8c0,0-10.2-25.5-17.6-34.4C1281.7,298.6,1303.7,292.3,1315.6,267.1
					z"/>
				<path fill="#3C2415" d="M1299.3,335.3c-0.2,0-0.5,0-0.7-0.1c-0.6-0.2-1.2-0.7-1.4-1.3c-0.1-0.3-10.2-25.3-17.3-33.7
					c-0.5-0.6-0.7-1.4-0.4-2.2c0.2-0.7,0.8-1.3,1.6-1.5c0.2-0.1,21.2-6.4,32.4-30.2c0.4-0.8,1.3-1.4,2.2-1.3c0.9,0,1.7,0.6,2.1,1.5
					c0.2,0.5,17.6,47.4-17.2,68.6C1300.2,335.1,1299.7,335.3,1299.3,335.3z M1285.4,299.7c5.8,8.4,12.4,23.7,15,29.8
					c22.4-15.7,17.7-44.5,14.6-56.3C1305.3,290,1291.5,297.2,1285.4,299.7z"/>
			</g>
			<g>
				<path fill="#D7B07F" d="M1280,418.9l11.5,15.5c1.3,1.8,2.4,3.7,3.2,5.7c1.9,5.2,2.3,12.8-15.7,6.6c0,0-4.5,24-20.5,5.1
					c0,0-17.8,30.5-18.7-18.4C1239.7,433.4,1262.6,429.9,1280,418.9z"/>
				<path fill="#3C2415" d="M1247.8,463.5c-0.5,0-1-0.1-1.6-0.2c-5.7-1.5-8.6-11-8.9-29.9c0-1.2,0.8-2.1,2-2.3
					c0.2,0,22.7-3.6,39.4-14.2c1-0.7,2.4-0.4,3.1,0.6l11.5,15.5c1.6,2.1,2.7,4.2,3.5,6.3c2,5.5,0.6,8.4-0.8,9.9
					c-2.7,2.7-7.6,2.9-15.4,0.4c-1.1,3.7-3.7,10-9.1,11.4c-3.9,1-8.2-0.8-12.8-5.5C1256.4,458.8,1252.3,463.5,1247.8,463.5z
					 M1242,435.3c0.6,21.1,4.6,23.3,5.4,23.5c2.3,0.6,6.7-4.4,8.9-8.2c0.4-0.6,1-1.1,1.8-1.1c0.8-0.1,1.5,0.2,2,0.8
					c4.1,4.8,7.6,7,10.2,6.3c3.8-1,5.9-8,6.4-10.4c0.1-0.7,0.5-1.2,1.1-1.6c0.6-0.3,1.3-0.4,1.9-0.2c10,3.5,12.5,2,13,1.5
					c0.7-0.7,0.7-2.6-0.2-5.1c-0.6-1.7-1.5-3.4-2.8-5.1l-10.2-13.8C1265,430.5,1247.8,434.3,1242,435.3z"/>
			</g>
		</g>
	</g>
</g>
</svg>
